<svg width="80" height="80" viewBox="0 0 80 80" fill="none" xmlns="http://www.w3.org/2000/svg">
<g clip-path="url(#clip0_1_441)">
<path d="M14.55 38.086C14.384 37.764 14.254 37.506 14.118 37.25C11.0353 31.45 7.95468 25.65 4.87602 19.85C2.79802 15.914 3.276 11.438 6.062 8.14999C10.652 2.74999 19.262 3.44999 22.874 9.54999C23.638 10.838 27.708 18.782 28.398 20.11C28.758 20.8 28.598 21.41 28.018 21.736C27.438 22.062 26.806 21.86 26.408 21.136C25.736 19.91 21.714 12.056 21.008 10.846C19.256 7.81199 16.056 6.32198 12.552 6.86398C9.39999 7.35398 6.76802 9.86399 6.02602 13.122C5.70602 14.522 5.71001 15.922 6.21601 17.258C6.67201 18.458 7.28601 19.608 7.76801 20.646C9.50801 20.1 11.094 19.502 12.73 19.132C13.636 18.9566 14.5689 18.9778 15.466 19.194C17.044 19.546 17.73 20.954 17.232 22.5C16.852 23.684 16.086 24.616 15.158 25.386C14.086 26.274 12.932 27.062 11.728 27.956L13.102 30.556C14.456 30.076 15.716 29.526 17.032 29.196C18.0242 28.9511 19.0485 28.8627 20.068 28.934C22.246 29.084 23.314 30.934 22.252 32.838C21.652 33.922 20.736 34.876 19.818 35.732C18.99 36.508 17.964 37.07 16.916 37.804C17.104 37.918 17.278 38.116 17.454 38.118C18.878 38.144 20.304 38.136 21.73 38.134C21.95 38.134 22.172 38.116 22.474 38.102C22.684 35.474 23.688 33.222 25.702 31.396C24.532 30.448 23.394 29.56 22.302 28.628C20.982 27.508 20.502 26.046 20.878 24.38C21.254 22.714 22.304 21.612 23.946 21.23C24.716 21.05 25.564 21.198 26.434 21.198C26.298 20.43 26.126 19.682 26.034 18.926C25.658 15.6 28.062 12.588 31.312 12.28C32.1155 12.1913 32.9286 12.2663 33.7023 12.5005C34.476 12.7347 35.1943 13.1232 35.8137 13.6426C36.4331 14.162 36.9409 14.8016 37.3063 15.5226C37.6718 16.2437 37.8873 17.0313 37.94 17.838C37.952 18.006 37.974 18.174 37.994 18.354C39.69 17.68 40.13 17.048 40.13 15.33C40.13 14.904 40.13 14.48 40.13 14.054C40.144 13.55 40.108 13.126 39.68 12.714C39.406 12.45 39.312 11.902 39.304 11.476C39.266 9.60199 39.282 7.72798 39.288 5.85198C39.298 3.74798 40.226 2.46599 42.238 1.74999C42.302 1.72799 48.422 1.72799 48.512 1.74999C50.408 2.37199 51.406 3.72799 51.416 5.72199C51.416 7.66999 51.436 9.61998 51.4 11.568C51.4 11.968 51.186 12.368 51.052 12.752C50.918 13.136 50.7 13.476 50.64 13.858C50.568 14.32 50.668 14.81 50.614 15.278C50.466 16.546 50.976 17.376 52.064 18.052C53.546 18.972 54.968 20.006 55.962 21.506C56.064 21.658 56.388 21.726 56.61 21.73C57.884 21.75 59.16 21.73 60.434 21.744C62.044 21.772 63.034 22.772 63.066 24.388C63.084 25.486 63.036 26.588 63.088 27.686C63.1127 28.0952 63.2512 28.4893 63.488 28.824C64.514 30.178 65.622 31.47 66.63 32.836C66.9363 33.2736 67.1161 33.787 67.15 34.32C67.224 35.558 67.174 36.804 67.174 38.12M42.922 38.078C42.9513 37.6605 42.9513 37.2415 42.922 36.824C42.568 34.454 43.264 32.47 45.032 30.85C46.728 29.298 47.452 27.398 47.07 25.104C47.047 24.8552 47.047 24.6048 47.07 24.356C47.09 22.79 48.07 21.78 49.638 21.738C50.586 21.712 51.536 21.738 52.484 21.738C52.664 21.738 52.846 21.7 53.244 21.652C52.228 20.92 51.406 20.272 50.53 19.71C49.058 18.764 48.306 17.472 48.38 15.71C48.412 14.92 48.38 14.128 48.38 13.31H42.592C42.368 14.884 42.336 16.454 41.89 17.894C41.404 19.456 39.622 19.894 38.448 21.016L39.102 21.056C41.54 21.218 43.256 23.098 43.178 25.532C43.1618 26.1462 43.0089 26.7491 42.7304 27.2967C42.4519 27.8444 42.0548 28.3231 41.568 28.698C40.478 29.596 39.378 30.476 38.252 31.386C40.034 33.062 41.12 35.014 41.356 37.372C41.416 37.99 41.624 38.222 42.22 38.134C42.416 38.106 42.616 38.108 42.934 38.09L42.922 38.078ZM45.176 38.062H64.864V35.016H60.464C59.84 35.016 59.214 35.044 58.592 34.998C58.4471 34.9964 58.3041 34.9653 58.1716 34.9067C58.0391 34.8482 57.9198 34.7633 57.821 34.6572C57.7223 34.5512 57.6461 34.4262 57.5971 34.2899C57.5481 34.1535 57.5274 34.0086 57.536 33.864C57.536 33.238 57.936 32.83 58.63 32.778C58.93 32.756 59.23 32.778 59.53 32.778H63.73C62.988 31.844 62.386 31.028 61.716 30.274C61.4741 30.0186 61.1449 29.8637 60.794 29.84C56.97 29.812 53.1467 29.812 49.324 29.84C48.9717 29.8606 48.6408 30.016 48.4 30.274C47.4 31.456 46.448 32.674 45.494 33.9C45.3306 34.0839 45.2255 34.3122 45.192 34.556C45.172 35.702 45.188 36.848 45.188 38.07L45.176 38.062ZM33.524 29.07C34.242 25.67 34.97 22.312 35.65 18.944C35.766 18.4031 35.7541 17.8427 35.6152 17.3073C35.4763 16.7718 35.2143 16.2763 34.85 15.86C34.3194 15.2213 33.592 14.7767 32.7817 14.5957C31.9713 14.4148 31.1239 14.5077 30.372 14.86C28.746 15.626 27.948 17.324 28.342 19.246C28.692 20.954 29.064 22.658 29.428 24.364C29.764 25.94 30.1 27.514 30.428 29.074L33.524 29.07ZM39.096 38.092C39.272 34.582 35.822 31.306 32.002 31.292C28.182 31.278 24.69 34.552 24.858 38.092H39.096ZM49.162 10.964C49.162 9.06598 49.192 7.22198 49.148 5.37998C49.128 4.50798 48.414 3.89199 47.494 3.87599C46.0727 3.85066 44.6507 3.85066 43.228 3.87599C42.316 3.89399 41.612 4.48998 41.582 5.39398C41.522 7.23198 41.564 9.07198 41.564 10.964H49.162ZM60.824 27.55C60.824 26.478 60.824 25.484 60.824 24.492C60.824 24.018 60.54 23.99 60.182 23.992C58.782 23.992 57.382 23.992 55.982 23.992C53.982 23.992 51.982 23.98 49.994 24.008C49.764 24.008 49.344 24.22 49.338 24.35C49.284 25.41 49.308 26.472 49.308 27.55H60.824ZM35.636 29.918C36.036 29.876 36.396 29.948 36.586 29.802C37.83 28.8433 39.0533 27.858 40.256 26.846C40.5613 26.6 40.7819 26.2647 40.887 25.887C40.9921 25.5094 40.9763 25.1083 40.842 24.74C40.7424 24.3618 40.5286 24.0235 40.2298 23.7712C39.9309 23.5188 39.5616 23.3648 39.172 23.33C38.324 23.22 37.628 23.514 37.198 24.252C36.9025 24.7391 36.6777 25.2657 36.53 25.816C36.212 27.094 35.962 28.392 35.64 29.918H35.636ZM28.122 29.976C28.2 29.872 28.28 29.776 28.358 29.662C27.89 27.968 27.48 26.262 26.932 24.586C26.634 23.674 25.85 23.248 24.864 23.316C24.4635 23.3434 24.0809 23.492 23.7669 23.7421C23.4529 23.9921 23.2224 24.3318 23.106 24.716C22.86 25.65 23.132 26.426 23.906 27.034C25.02 27.916 26.106 28.834 27.234 29.694C27.466 29.87 27.826 29.888 28.126 29.976H28.122ZM10.604 25.85C12.296 24.902 13.83 23.906 14.86 22.312C15.348 21.556 15.198 21.28 14.322 21.252C12.39 21.19 10.694 21.93 8.98202 22.798L10.604 25.85ZM15.85 35.708C17.592 34.738 19.178 33.72 20.182 32.028C20.556 31.398 20.438 31.182 19.708 31.136C17.72 31.012 15.976 31.75 14.234 32.672L15.85 35.708Z" fill="white"/>
<path d="M76.828 66.958C74.396 62.8833 71.9533 58.8166 69.5 54.758C69.2128 54.3247 69.0986 53.7994 69.18 53.286C69.422 51.584 69.58 49.872 69.78 48.13C70.3 48.094 70.78 48.092 71.234 48.022C71.9859 47.9247 72.6778 47.5602 73.1834 46.9952C73.689 46.4301 73.9745 45.7021 73.9879 44.944C74.0279 43.672 74.0279 42.394 73.9879 41.122C73.9339 39.354 72.6159 38.064 70.7879 37.996C69.6159 37.954 10.5379 37.962 9.28794 37.996C7.30194 38.044 6.03195 39.332 5.99995 41.318C5.97995 42.4686 5.97995 43.6186 5.99995 44.768C6.03395 46.734 7.33595 48.03 9.30595 48.086C9.59595 48.086 9.88394 48.112 10.1899 48.128C10.4119 50.016 10.648 51.822 10.82 53.634C10.8245 54.0001 10.7201 54.3593 10.52 54.666C8.10597 58.722 5.65795 62.76 3.25595 66.822C2.92014 67.3706 2.7041 67.984 2.62197 68.622C2.47397 70.094 3.45197 71.422 4.86797 71.876C5.55281 72.0994 6.29317 72.084 6.96811 71.8322C7.64306 71.5805 8.21271 71.1073 8.58398 70.49C9.64598 68.798 10.65 67.07 11.684 65.36C11.79 65.182 11.922 65.022 12.13 64.728C12.21 65.412 13.13 73.192 13.234 73.94C13.502 75.74 14.496 77.006 16.112 77.792C16.5466 77.9753 16.9913 78.1335 17.4439 78.266H62.5999C63.139 78.0856 63.6661 77.8712 64.178 77.624C65.778 76.73 66.604 75.32 66.804 73.508C67.104 70.804 67.4259 68.108 67.7419 65.398C67.7619 65.226 67.806 65.056 67.864 64.754C68.044 65.01 68.172 65.168 68.276 65.342C69.276 66.988 70.2479 68.642 71.2479 70.284C72.298 72.006 74.222 72.528 75.824 71.546C77.408 70.588 77.838 68.652 76.828 66.958ZM9.54394 45.83C8.57794 45.83 8.27596 45.526 8.26596 44.584C8.25596 43.508 8.25196 42.434 8.26596 41.36C8.27796 40.574 8.57796 40.284 9.35996 40.24C9.58396 40.228 9.80998 40.24 10.034 40.24H69.962C70.188 40.24 70.412 40.24 70.636 40.24C71.4 40.282 71.7359 40.602 71.7479 41.356C71.766 42.48 71.7579 43.606 71.7479 44.73C71.7479 45.424 71.37 45.818 70.684 45.824C68.634 45.842 66.584 45.846 64.534 45.812C64.308 45.812 64.012 45.566 63.874 45.352C63.29 44.452 62.756 43.52 62.202 42.6C61.104 40.776 59.366 40.182 57.704 41.04C57.3161 41.2448 56.9736 41.5258 56.697 41.8661C56.4203 42.2064 56.2151 42.599 56.0938 43.0204C55.9724 43.4419 55.9373 43.8835 55.9906 44.3188C56.0439 44.7542 56.1845 45.1743 56.404 45.554C56.4284 45.6332 56.4425 45.7152 56.4459 45.798H23.6459C23.7719 45.062 24.0279 44.332 23.9919 43.618C23.9499 42.9375 23.686 42.2896 23.2406 41.7734C22.7952 41.2572 22.1929 40.9012 21.526 40.76C20.8653 40.5955 20.1693 40.6474 19.5403 40.9081C18.9113 41.1688 18.3826 41.6244 18.032 42.208C17.392 43.22 16.7746 44.2473 16.18 45.29C16.1003 45.469 15.9666 45.6186 15.7978 45.7179C15.6289 45.8173 15.4331 45.8613 15.2379 45.844C13.3439 45.816 11.4439 45.838 9.54394 45.83ZM67.512 48.154C67.416 49.01 67.324 49.822 67.232 50.632L67.0899 50.714C66.5939 49.894 66.0899 49.074 65.5439 48.154H67.512ZM14.476 48.118L12.816 50.886C12.688 49.852 12.586 49.03 12.472 48.118H14.476ZM6.85796 69.026C6.65796 69.37 6.55994 69.67 6.08794 69.76C5.14194 69.744 4.68794 69.1 4.93794 68.448C5.03854 68.2192 5.15901 67.9997 5.29795 67.792C10.0726 59.8346 14.8473 51.8766 19.622 43.918C19.686 43.812 19.75 43.704 19.822 43.6C20.244 42.938 20.784 42.75 21.314 43.074C21.844 43.398 21.914 43.968 21.514 44.646C16.6313 52.7767 11.746 60.9033 6.85796 69.026ZM65.858 62.226C65.458 65.876 65.004 69.52 64.58 73.168C64.358 75.076 63.328 76.018 61.406 76.02H49.78C39.3533 76.02 28.9273 76.02 18.502 76.02C16.738 76.02 15.702 75.132 15.43 73.392C15.33 72.744 14.242 63.392 14.12 62.026C14.0881 61.6652 14.1625 61.303 14.334 60.984C16.782 56.862 19.264 52.758 21.716 48.636C21.807 48.4506 21.9526 48.2974 22.1331 48.197C22.3136 48.0966 22.5204 48.0536 22.726 48.074C34.226 48.0873 45.7266 48.0873 57.228 48.074C57.4456 48.0534 57.6644 48.0998 57.8549 48.207C58.0455 48.3143 58.1987 48.4772 58.2939 48.674C60.7159 52.756 63.1759 56.814 65.5919 60.898C65.8144 61.3031 65.9099 61.7659 65.866 62.226H65.858ZM74.586 69.626C74.226 69.722 73.766 69.526 73.386 69.386C73.238 69.332 73.158 69.072 73.056 68.9C68.236 60.8733 63.4166 52.8453 58.5979 44.816C58.472 44.6285 58.368 44.4272 58.2879 44.216C58.0879 43.56 58.5679 42.9 59.4879 42.912C59.6759 43.112 60.0579 43.386 60.2879 43.76C62.8906 48.052 65.4773 52.3526 68.048 56.662C70.2719 60.366 72.4946 64.07 74.716 67.774C74.8697 68.001 74.9947 68.2462 75.0879 68.504C75.2139 68.998 75.0679 69.502 74.5939 69.626H74.586Z" fill="white"/>
<path d="M43.3896 55.6321C43.3896 56.2561 43.4036 56.88 43.3896 57.504C43.3456 59.192 42.0896 60.462 40.4596 60.486C39.6747 60.5103 38.9123 60.2221 38.3397 59.6848C37.7671 59.1474 37.4312 58.4049 37.4056 57.62C37.3456 56.298 37.3476 54.97 37.4056 53.648C37.4731 52.8921 37.8247 52.1898 38.3894 51.6827C38.9541 51.1757 39.69 50.9015 40.4488 50.9154C41.2077 50.9294 41.933 51.2304 42.4787 51.7579C43.0244 52.2854 43.3499 53.0001 43.3896 53.758C43.4036 54.382 43.3896 55.0061 43.3896 55.6321ZM41.1416 55.67C41.1416 55.07 41.1416 54.47 41.1416 53.87C41.1416 53.366 40.8836 52.974 40.4016 53.056C40.1156 53.106 39.6936 53.524 39.6756 53.798C39.5956 55.0161 39.5956 56.238 39.6756 57.456C39.6936 57.726 40.1156 58.13 40.4076 58.188C40.9116 58.284 41.1376 57.876 41.1396 57.388C41.1416 56.816 41.1396 56.242 41.1416 55.67Z" fill="white"/>
<path d="M36.062 67.87C36.062 68.568 36.116 69.27 36.052 69.966C35.9905 70.7086 35.6479 71.3997 35.0941 71.8981C34.5402 72.3966 33.817 72.6648 33.072 72.648C31.544 72.648 30.238 71.544 30.138 70.008C30.044 68.5375 30.044 67.0625 30.138 65.592C30.236 64.064 31.55 62.944 33.066 62.93C33.8116 62.9195 34.5335 63.1914 35.087 63.6911C35.6404 64.1908 35.9845 64.8812 36.05 65.624C36.118 66.364 36.062 67.118 36.062 67.87ZM33.84 67.812C33.84 67.212 33.852 66.612 33.84 66.012C33.84 65.52 33.562 65.122 33.076 65.224C32.792 65.284 32.394 65.706 32.374 65.986C32.296 67.186 32.33 68.374 32.344 69.568C32.344 70.048 32.58 70.394 33.114 70.368C33.648 70.342 33.832 69.984 33.844 69.51C33.852 68.952 33.842 68.38 33.84 67.808V67.812Z" fill="white"/>
<path d="M22.7865 55.628C22.7865 55.002 22.7725 54.378 22.7865 53.754C22.7898 52.9785 23.0943 52.2346 23.6358 51.6793C24.1772 51.1241 24.9132 50.801 25.6884 50.7782C26.4636 50.7553 27.2173 51.0346 27.7905 51.557C28.3637 52.0794 28.7115 52.804 28.7605 53.578C28.8405 54.9502 28.8405 56.3258 28.7605 57.698C28.6605 59.376 27.2924 60.536 25.6384 60.482C24.0524 60.43 22.8385 59.156 22.7865 57.5C22.7725 56.87 22.7865 56.252 22.7865 55.628ZM26.5405 55.682C26.5405 55.082 26.5505 54.482 26.5405 53.882C26.5305 53.396 26.3005 53.038 25.7925 53.032C25.2845 53.026 25.0384 53.352 25.0384 53.858V57.372C25.0384 57.864 25.2385 58.21 25.7665 58.216C26.2945 58.222 26.5205 57.876 26.5365 57.394C26.5625 56.828 26.5385 56.254 26.5405 55.682Z" fill="white"/>
<path d="M58.04 55.648C58.04 56.272 58.064 56.898 58.04 57.52C57.962 59.246 56.668 60.498 54.998 60.486C53.328 60.474 52.072 59.192 52.044 57.454C52.024 56.23 52.022 55.006 52.044 53.782C52.076 52.068 53.376 50.766 55.024 50.762C55.8062 50.7699 56.5551 51.0798 57.1142 51.6269C57.6733 52.1741 57.9993 52.9161 58.024 53.698C58.068 54.346 58.038 54.998 58.04 55.648ZM54.29 55.592C54.29 56.216 54.29 56.838 54.29 57.46C54.29 57.93 54.556 58.288 55.016 58.198C55.302 58.14 55.728 57.782 55.742 57.538C55.8157 56.2724 55.8157 55.0036 55.742 53.738C55.728 53.49 55.238 53.046 55.038 53.082C54.8685 53.1371 54.7147 53.2322 54.5898 53.3593C54.4648 53.4863 54.3723 53.6416 54.32 53.812C54.21 54.38 54.29 54.994 54.29 55.592Z" fill="white"/>
<path d="M50.714 67.818C50.714 68.468 50.734 69.118 50.714 69.766C50.6658 70.5273 50.3294 71.2416 49.7732 71.7637C49.217 72.2858 48.4829 72.5764 47.72 72.5764C46.9572 72.5764 46.2231 72.2858 45.6669 71.7637C45.1107 71.2416 44.7743 70.5273 44.726 69.766C44.692 68.468 44.696 67.166 44.726 65.868C44.726 65.0724 45.0421 64.3093 45.6047 63.7467C46.1673 63.1841 46.9304 62.868 47.726 62.868C48.5217 62.868 49.2847 63.1841 49.8473 63.7467C50.4099 64.3093 50.726 65.0724 50.726 65.868C50.732 66.518 50.714 67.168 50.714 67.818ZM48.464 67.792C48.464 67.192 48.464 66.592 48.464 65.992C48.464 65.486 48.1581 65.118 47.6861 65.222C47.5169 65.2851 47.3658 65.3886 47.2459 65.5235C47.1259 65.6584 47.0408 65.8207 46.998 65.996C46.922 67.196 46.962 68.386 46.97 69.582C46.97 70.044 47.1961 70.358 47.6801 70.382C48.2001 70.4 48.452 70.088 48.464 69.582C48.476 68.988 48.464 68.39 48.464 67.792Z" fill="white"/>
</g>
<defs>
<clipPath id="clip0_1_441">
<rect width="80" height="80" fill="white"/>
</clipPath>
</defs>
</svg>
