<svg width="80" height="80" viewBox="0 0 80 80" fill="none" xmlns="http://www.w3.org/2000/svg">
<path d="M63.6189 34.2105C64.7202 34.2105 65.7457 34.1985 66.7711 34.2105C67.3696 34.2205 67.8703 34.0868 68.1257 33.4883C68.3811 32.8898 68.0878 32.4369 67.6728 32.022C61.0933 25.4477 54.5144 18.8742 47.9361 12.3012C43.8145 8.20349 37.4245 8.22145 33.2629 12.3012C31.9122 13.6259 30.5875 14.9786 29.1611 16.409C29.1291 16.2107 29.1071 16.011 29.0953 15.8105C29.0953 14.3481 29.0953 12.8858 29.0953 11.4215C29.0833 9.8414 28.1636 8.91372 26.5975 8.89976C25.5681 8.88779 24.5373 8.88779 23.5052 8.89976C21.987 8.91771 21.0474 9.85337 21.0434 11.3835C21.0341 15.5305 21.0341 19.6775 21.0434 23.8244C21.0562 24.0472 21.0195 24.2701 20.9361 24.477C20.8526 24.684 20.7244 24.8699 20.5605 25.0215C18.2064 27.3456 15.8743 29.6898 13.5361 32.0299C12.9376 32.6284 12.7681 33.207 13.185 33.6658C13.4748 33.9648 13.8603 34.1526 14.2743 34.1965C15.3436 34.2663 16.421 34.2204 17.5821 34.2204C17.5821 35.3915 17.5641 36.5107 17.5821 37.6279C17.596 38.3521 18.0968 38.8249 18.7492 38.8249C19.4015 38.8249 19.8244 38.3422 19.8723 37.6559C19.8723 37.584 19.8723 37.5122 19.8723 37.4404C19.8723 36.0738 19.8723 34.7072 19.8723 33.3407C19.8723 32.3232 19.4593 31.9342 18.414 31.9262C17.9691 31.9262 17.5242 31.9262 16.9356 31.9262C17.2349 31.611 17.4204 31.4055 17.616 31.21C19.3277 29.4963 21.0613 27.8065 22.7331 26.0549C23.0751 25.6741 23.2758 25.1874 23.3017 24.6763C23.3436 20.4868 23.3257 16.2973 23.3257 12.0918V11.2599H26.7451C26.7571 11.4733 26.777 11.6828 26.777 11.8903C26.777 13.6858 26.759 15.4813 26.787 17.2768C26.8009 18.1786 26.787 18.9905 25.9691 19.6389C25.4364 20.0579 25.5281 20.792 25.985 21.2349C26.4718 21.7057 27.1361 21.6758 27.7047 21.1092C30.0854 18.7431 32.4588 16.3717 34.8249 13.995C35.9311 12.8484 37.3605 12.0661 38.9226 11.7526C41.6199 11.2259 44.0837 11.7965 46.0388 13.7237C52.0658 19.6609 58.0229 25.6718 64.0059 31.6549C64.0681 31.7399 64.1241 31.8292 64.1736 31.9222C63.587 31.9222 63.0723 31.9082 62.5595 31.9222C61.7615 31.9481 61.3207 32.3731 61.3107 33.1811C61.2948 34.6441 61.2948 36.1071 61.3107 37.5701C61.3107 38.3422 61.8154 38.8449 62.4917 38.8229C63.1681 38.801 63.591 38.3162 63.6029 37.5721C63.6388 36.4848 63.6189 35.4075 63.6189 34.2105Z" fill="url(#paint0_linear_1_516)"/>
<path d="M19.8264 48.5446C19.8252 48.5577 19.8218 48.5706 19.8164 48.5825C19.7961 48.6272 19.7636 48.6652 19.7227 48.6923C19.1601 49.1351 18.4957 49.4165 17.8713 49.7516C17.2252 50.0986 16.6342 50.5397 16.1176 51.0603C15.613 51.5679 15.1655 52.1292 14.783 52.7342C14.0468 53.8902 13.5847 55.1992 13.4319 56.5612C13.279 57.9232 13.4396 59.3021 13.9012 60.5925C14.2632 61.6056 14.7845 62.5546 15.4454 63.4035C15.4813 63.4474 15.5092 63.4992 15.569 63.591C15.4433 63.6928 15.3217 63.8025 15.188 63.8983C12.6182 65.7253 10.863 68.4833 10.2962 71.585C10.1506 72.3332 10.5336 72.9556 11.2079 73.0853C11.8463 73.209 12.4249 72.792 12.5705 72.0519C12.8104 70.7449 13.3096 69.4992 14.0387 68.3884C14.7679 67.2775 15.7122 66.324 16.8159 65.584C16.9165 65.4989 17.0346 65.4369 17.1618 65.4024C17.289 65.3679 17.4223 65.3618 17.5521 65.3845C17.5793 65.3894 17.6047 65.4008 17.6264 65.4179C17.648 65.435 17.6652 65.4571 17.6762 65.4823C17.6873 65.5076 17.6919 65.5352 17.6898 65.5627C17.6876 65.5902 17.6786 65.6167 17.6638 65.6399L17.169 66.412C16.9531 66.7438 16.8638 67.1422 16.9173 67.5345C16.9708 67.9267 17.1635 68.2867 17.4603 68.5486L20.756 71.4933C21.1373 71.8336 21.6306 72.0216 22.1416 72.0216C22.6527 72.0216 23.1458 71.8336 23.5271 71.4933L26.4498 68.8818C26.8493 68.5262 27.1089 68.0398 27.1821 67.5099C27.2552 66.9801 27.137 66.4416 26.8488 65.991C26.8362 65.9716 26.8279 65.9497 26.8244 65.9268C26.8208 65.9039 26.8219 65.8805 26.828 65.8581C26.834 65.8358 26.8446 65.8149 26.8592 65.7969C26.8738 65.7789 26.8921 65.7641 26.9127 65.7536C27.0643 65.6758 27.2159 65.594 27.3675 65.5062C27.7486 65.2888 28.0059 65.2708 28.3371 65.5382C28.76 65.8833 29.203 66.2045 29.6598 66.5476C29.6942 66.5735 29.717 66.6116 29.7237 66.6541C29.7304 66.6965 29.7204 66.7399 29.6957 66.7751C28.8374 67.9985 28.2113 69.3692 27.8484 70.8189C27.7466 71.1916 27.6798 71.573 27.6489 71.9581C27.6388 72.2323 27.7307 72.5005 27.9068 72.7109C28.0829 72.9213 28.3307 73.059 28.6024 73.0973C28.863 73.1371 29.1294 73.0865 29.3573 72.9541C29.5852 72.8216 29.761 72.6152 29.8554 72.3691C29.9152 72.1851 29.9618 71.9971 29.9949 71.8065C30.5815 69.1252 32.0339 67.0424 34.3082 65.5142C34.6374 65.2928 34.8708 65.2928 35.2299 65.4982C35.2957 65.5361 35.3596 65.5721 35.4294 65.606C35.4498 65.6167 35.4678 65.6316 35.4822 65.6496C35.4966 65.6676 35.5072 65.6885 35.5132 65.7107C35.5192 65.733 35.5205 65.7563 35.5171 65.7792C35.5137 65.802 35.5055 65.8239 35.4932 65.8434L35.1281 66.412C34.9122 66.7438 34.8229 67.1422 34.8764 67.5345C34.9299 67.9267 35.1226 68.2867 35.4194 68.5486L38.7151 71.4933C39.0964 71.8336 39.5897 72.0216 40.1007 72.0216C40.6118 72.0216 41.105 71.8336 41.4862 71.4933L44.4089 68.8818C44.8084 68.5262 45.068 68.0398 45.1412 67.5099C45.2143 66.9801 45.0961 66.4416 44.8079 65.991L44.5585 65.604L44.7142 65.5202C45.1132 65.2888 45.3765 65.3047 45.7396 65.5541C47.978 67.0903 49.4244 69.1551 49.985 71.8244C50.005 71.9182 50.0329 72.012 50.0568 72.1057C50.2423 72.8159 50.7751 73.209 51.3975 73.1032C52.0618 72.9795 52.4389 72.403 52.3172 71.6648C52.0426 70.0593 51.4396 68.5277 50.5456 67.1661L50.2723 66.7292C50.2481 66.6938 50.2388 66.6504 50.2463 66.6083C50.2537 66.5662 50.2774 66.5286 50.3122 66.5037C50.8449 66.1047 51.3555 65.7277 51.8902 65.3765C51.9708 65.3425 52.058 65.327 52.1453 65.3312C52.2327 65.3353 52.318 65.359 52.395 65.4005C52.6204 65.5322 52.8459 65.6539 53.0693 65.7656C53.0904 65.7759 53.1091 65.7906 53.124 65.8086C53.139 65.8267 53.15 65.8478 53.1562 65.8704C53.1624 65.8931 53.1638 65.9168 53.1602 65.94C53.1565 65.9632 53.148 65.9853 53.1351 66.005L52.8837 66.404C52.6679 66.7358 52.5785 67.1342 52.632 67.5265C52.6855 67.9187 52.8782 68.2787 53.175 68.5406L56.4707 71.4853C56.852 71.8256 57.3453 72.0137 57.8563 72.0137C58.3674 72.0137 58.8606 71.8256 59.2419 71.4853L62.1645 68.8738C62.564 68.5182 62.8236 68.0318 62.8968 67.5019C62.9699 66.9721 62.8517 66.4336 62.5635 65.983L62.2164 65.4444L62.2962 65.4005C62.3935 65.3639 62.4978 65.3496 62.6013 65.3585C62.7049 65.3675 62.8052 65.3996 62.8947 65.4524C63.9934 66.1282 64.9463 67.0164 65.6975 68.065C66.4487 69.1136 66.9832 70.3014 67.2698 71.5591C67.2965 71.6517 67.3184 71.7456 67.3356 71.8404C67.4194 72.4688 67.6827 72.9616 68.357 73.0833C68.9775 73.195 69.3446 72.8319 69.6479 72.3771L69.7376 71.7047C69.4822 70.9067 69.2907 70.0648 68.9815 69.2788C68.0861 67.017 66.5294 65.0779 64.5147 63.7147C64.4969 63.7027 64.4816 63.6872 64.4697 63.6693C64.4578 63.6513 64.4496 63.6312 64.4455 63.6101C64.4415 63.589 64.4416 63.5672 64.4459 63.5462C64.4503 63.5251 64.4587 63.5051 64.4708 63.4873C64.5266 63.4015 64.5805 63.3197 64.6383 63.2419C67.7825 59.0803 67.0064 53.4324 62.8907 50.2164C60.7481 48.5406 58.1027 48.4808 57.0892 48.3232C56.8185 48.2737 56.5759 48.1255 56.4082 47.9073C56.2405 47.6891 56.1597 47.4164 56.1815 47.1421C56.1941 46.869 56.3036 46.6092 56.4904 46.4096C56.6773 46.2099 56.9292 46.0834 57.201 46.0529C57.3147 46.0349 57.4344 46.0389 57.5461 46.013C57.8278 45.9573 58.0786 45.7986 58.2497 45.568C58.4208 45.3374 58.4999 45.0513 58.4715 44.7655C58.4431 44.4798 58.3092 44.2149 58.0961 44.0224C57.8829 43.83 57.6058 43.7238 57.3186 43.7247C55.0782 43.6449 53.3386 45.9691 53.995 48.1696C54.0489 48.3491 54.1147 48.5227 54.1945 48.7322C54.2096 48.7727 54.2081 48.8175 54.1906 48.857C54.1731 48.8965 54.1408 48.9276 54.1007 48.9436C52.9238 49.391 51.8494 50.0715 50.942 50.9444C50.0345 51.8172 49.3128 52.8643 48.82 54.0229C48.8064 54.0517 48.7849 54.076 48.7581 54.0931C48.7313 54.1101 48.7001 54.1191 48.6683 54.1191C48.6365 54.1191 48.6053 54.1101 48.5785 54.0931C48.5516 54.076 48.5303 54.0517 48.5167 54.0229C48.4748 53.9332 48.4388 53.8553 48.3989 53.7775C46.7132 50.41 44.01 48.5905 40.2294 48.3771C39.4115 48.3312 38.8828 47.9322 38.8329 47.2758C38.8311 47.1117 38.8617 46.9489 38.9231 46.7968C38.9845 46.6447 39.0753 46.5062 39.1905 46.3893C39.3057 46.2725 39.4428 46.1796 39.5941 46.116C39.7453 46.0525 39.9077 46.0195 40.0718 46.0189C40.2283 46.0152 40.3821 45.9783 40.5233 45.9107C40.6645 45.8432 40.7897 45.7464 40.8908 45.6269C40.9918 45.5074 41.0664 45.3678 41.1095 45.2173C41.1527 45.0669 41.1634 44.909 41.1411 44.7541C41.0793 44.1317 40.5825 43.7247 39.8883 43.7247C37.6239 43.7247 35.976 46.0549 36.6782 48.2534C36.7281 48.409 36.784 48.5646 36.8438 48.7362C36.8548 48.7754 36.8512 48.8172 36.8336 48.854C36.816 48.8907 36.7856 48.9197 36.7481 48.9357C34.2902 49.9332 32.5267 51.6189 31.4893 53.981C31.4772 54.0094 31.4576 54.0339 31.4326 54.0518C31.4075 54.0698 31.378 54.0804 31.3473 54.0827C31.3166 54.085 31.2859 54.0787 31.2585 54.0647C31.2311 54.0506 31.208 54.0293 31.192 54.003C30.7742 53.246 30.3078 52.5169 29.7954 51.8204C28.0299 49.612 25.6878 48.4948 22.8648 48.3511C22.5197 48.3332 22.0668 48.2434 21.8673 48.01C21.7346 47.8568 21.6377 47.676 21.5836 47.4807C21.5294 47.2854 21.5192 47.0805 21.554 46.8808C21.6538 46.5017 22.1786 46.1526 22.5317 46.0409C22.7052 45.987 22.8868 45.9671 23.0603 45.9132C23.5611 45.7576 23.8204 45.185 23.7486 44.6883C23.7158 44.4264 23.5903 44.1848 23.3949 44.0073C23.1995 43.8299 22.9471 43.7282 22.6832 43.7207C22.1136 43.6958 21.5474 43.821 21.0414 44.0838C20.4977 44.3708 20.0519 44.8132 19.7606 45.3546C19.4538 45.8953 19.3431 46.5253 19.4474 47.1382C19.5295 47.5609 19.647 47.976 19.7985 48.379C19.82 48.4315 19.8295 48.488 19.8264 48.5446ZM25.165 67.0643C25.1982 67.1144 25.212 67.1747 25.2039 67.2342C25.1958 67.2936 25.1665 67.3481 25.1212 67.3875L22.3082 69.8993C22.2621 69.9405 22.2025 69.9632 22.1407 69.9632C22.0788 69.9632 22.0191 69.9405 21.973 69.8993L19.1082 67.3397C19.0784 67.3132 19.059 67.2769 19.0536 67.2374C19.0481 67.1979 19.0568 67.1578 19.0783 67.1242L19.5352 66.416C19.5554 66.3833 19.5863 66.3586 19.6227 66.3462C19.6591 66.3338 19.6987 66.3345 19.7347 66.3481C21.3363 66.9229 23.0732 67.0056 24.7222 66.5855C24.756 66.5768 24.7915 66.5789 24.8241 66.5914C24.8566 66.6039 24.8844 66.6263 24.9037 66.6554L25.165 67.0643ZM22.6174 64.5147C21.2502 64.5151 19.9138 64.11 18.7769 63.3506C17.64 62.5912 16.7539 61.5117 16.2307 60.2486C15.7075 58.9855 15.5708 57.5956 15.8377 56.2548C16.1046 54.914 16.7632 53.6824 17.7302 52.716C18.6972 51.7495 19.9292 51.0916 21.2702 50.8255C22.6112 50.5593 24.0009 50.6969 25.2637 51.2208C26.5265 51.7448 27.6055 52.6315 28.3643 53.7687C29.123 54.906 29.5273 56.2428 29.5261 57.61C29.5177 59.4393 28.787 61.1913 27.4931 62.4845C26.1992 63.7777 24.4468 64.5074 22.6174 64.5147ZM31.1959 64.806L29.8293 63.7287C29.7975 63.7038 29.7761 63.668 29.7691 63.6282C29.7621 63.5884 29.7701 63.5475 29.7915 63.5132L31.1581 61.201C31.1726 61.1757 31.1935 61.1547 31.2187 61.1401C31.244 61.1255 31.2726 61.1178 31.3017 61.1178C31.3309 61.1178 31.3595 61.1255 31.3847 61.1401C31.41 61.1547 31.4308 61.1757 31.4453 61.201C31.8762 61.9372 32.3312 62.7092 32.802 63.5112C32.823 63.5456 32.8306 63.5864 32.8236 63.6261C32.8166 63.6657 32.7955 63.7015 32.7641 63.7267L31.4055 64.806C31.3758 64.8282 31.3398 64.8401 31.3027 64.8401C31.2657 64.8401 31.2296 64.8282 31.1999 64.806H31.1959ZM43.1161 67.0643C43.1493 67.1144 43.1631 67.1747 43.155 67.2342C43.1469 67.2936 43.1176 67.3481 43.0723 67.3875L40.2593 69.8993C40.2132 69.9405 40.1536 69.9632 40.0918 69.9632C40.0299 69.9632 39.9702 69.9405 39.9241 69.8993L37.0593 67.3397C37.0295 67.3132 37.0102 67.2769 37.0047 67.2374C36.9992 67.1979 37.008 67.1578 37.0294 67.1242L37.3865 66.5696C37.4058 66.5396 37.4344 66.5167 37.4679 66.5045C37.5014 66.4922 37.5379 66.4913 37.572 66.5017C39.2073 66.9833 40.9494 66.9638 42.5736 66.4459C42.6082 66.4351 42.6455 66.4359 42.6796 66.4482C42.7138 66.4604 42.743 66.4834 42.763 66.5137L43.1161 67.0643ZM39.982 64.5147C38.1698 64.4839 36.4422 63.7424 35.1715 62.4499C33.9008 61.1574 33.1887 59.4175 33.1887 57.605C33.1887 55.7925 33.9008 54.0525 35.1715 52.76C36.4422 51.4676 38.1698 50.7261 39.982 50.6953C43.7546 50.6953 46.9067 53.8474 46.8987 57.612C46.8866 59.4407 46.1542 61.1909 44.8601 62.4831C43.5661 63.7753 41.8147 64.5053 39.986 64.5147H39.982ZM48.5605 64.792L47.18 63.7027C47.1461 63.6769 47.1236 63.639 47.1173 63.5969C47.1109 63.5548 47.1213 63.5119 47.1461 63.4773C47.4075 63.0962 47.6827 62.7192 47.9202 62.3222C48.1316 61.9651 48.3191 61.592 48.4987 61.2249C48.512 61.1982 48.5323 61.1755 48.5574 61.1593C48.5825 61.1432 48.6115 61.1341 48.6414 61.1331C48.6713 61.132 48.7008 61.1391 48.7269 61.1535C48.7531 61.1679 48.7749 61.1892 48.79 61.215L50.1605 63.5072C50.1821 63.5418 50.1901 63.5831 50.1832 63.6232C50.1762 63.6633 50.1546 63.6994 50.1227 63.7247L48.768 64.792C48.738 64.8168 48.7002 64.8304 48.6613 64.8304C48.6223 64.8304 48.5846 64.8168 48.5546 64.792H48.5605ZM60.8818 67.0643C60.9149 67.1144 60.9287 67.1747 60.9207 67.2342C60.9126 67.2936 60.8831 67.3481 60.8379 67.3875L58.0249 69.8993C57.9788 69.9405 57.9192 69.9632 57.8573 69.9632C57.7955 69.9632 57.7359 69.9405 57.6898 69.8993L54.8249 67.3397C54.7951 67.3132 54.7757 67.2769 54.7702 67.2374C54.7647 67.1979 54.7735 67.1578 54.795 67.1242L55.0883 66.6693C55.107 66.6402 55.1344 66.6177 55.1667 66.6052C55.199 66.5926 55.2343 66.5906 55.2678 66.5995C56.9231 67.0087 58.6624 66.9199 60.2673 66.3441C60.3033 66.3309 60.3427 66.3304 60.379 66.3428C60.4154 66.3551 60.4463 66.3795 60.4668 66.412L60.8818 67.0643ZM57.3287 64.5147C55.9617 64.5131 54.6259 64.1062 53.4902 63.3453C52.3545 62.5845 51.47 61.5039 50.9485 60.2403C50.427 58.9767 50.292 57.5868 50.5605 56.2465C50.8291 54.9061 51.4891 53.6755 52.4571 52.7103C53.4251 51.7451 54.6576 51.0887 55.9987 50.824C57.3398 50.5594 58.7293 50.6984 59.9913 51.2235C61.2534 51.7487 62.3315 52.6363 63.0891 53.7741C63.8466 54.912 64.2497 56.249 64.2473 57.6159C64.2399 59.4478 63.5072 61.2022 62.2094 62.4951C60.9117 63.788 59.1545 64.5142 57.3226 64.5147H57.3287Z" fill="url(#paint1_linear_1_516)"/>
<path d="M46.6948 32.7082C46.6908 33.9162 46.3286 35.0959 45.6539 36.0979C44.9792 37.0999 44.0224 37.8792 42.9046 38.3372C41.7867 38.7951 40.5582 38.9112 39.3744 38.6706C38.1906 38.4301 37.1048 37.8437 36.2544 36.9858C35.404 36.1278 34.8272 35.0369 34.5971 33.851C34.367 32.6651 34.494 31.4376 34.9618 30.3239C35.4297 29.2102 36.2174 28.2603 37.2253 27.5945C38.2332 26.9287 39.4161 26.5768 40.624 26.5835C42.2399 26.5951 43.7854 27.2458 44.9229 28.3935C46.0605 29.5411 46.6975 31.0923 46.6948 32.7082ZM44.4165 32.7082C44.4188 31.9523 44.1973 31.2126 43.7799 30.5824C43.3625 29.9522 42.7679 29.4597 42.071 29.1669C41.3741 28.8741 40.6061 28.7942 39.8638 28.9372C39.1216 29.0802 38.4383 29.4397 37.9001 29.9705C37.3618 30.5012 36.9927 31.1794 36.8394 31.9196C36.686 32.6598 36.7551 33.4288 37.0381 34.1297C37.3211 34.8307 37.8052 35.4322 38.4295 35.8584C39.0538 36.2846 39.7903 36.5164 40.5462 36.5247C41.0516 36.5326 41.5535 36.4399 42.0228 36.252C42.492 36.064 42.9192 35.7846 43.2794 35.43C43.6396 35.0754 43.9256 34.6526 44.1209 34.1864C44.3161 33.7201 44.4166 33.2197 44.4165 32.7142V32.7082Z" fill="url(#paint2_linear_1_516)"/>
<defs>
<linearGradient id="paint0_linear_1_516" x1="40.5881" y1="8.89078" x2="40.5881" y2="38.8249" gradientUnits="userSpaceOnUse">
<stop stop-color="#DA3976"/>
<stop offset="1" stop-color="#F19400"/>
</linearGradient>
<linearGradient id="paint1_linear_1_516" x1="40.0015" y1="43.7176" x2="40.0015" y2="73.1203" gradientUnits="userSpaceOnUse">
<stop stop-color="#DA3976"/>
<stop offset="1" stop-color="#F19400"/>
</linearGradient>
<linearGradient id="paint2_linear_1_516" x1="40.5901" y1="26.5834" x2="40.5901" y2="38.7929" gradientUnits="userSpaceOnUse">
<stop stop-color="#DA3976"/>
<stop offset="1" stop-color="#F19400"/>
</linearGradient>
</defs>
</svg>
