<svg width="80" height="80" viewBox="0 0 80 80" fill="none" xmlns="http://www.w3.org/2000/svg">
<g clip-path="url(#clip0_1_487)">
<path d="M56.4316 3.5C60.2436 4.348 63.0117 6.762 65.5337 9.546C65.7237 9.756 65.9996 9.962 66.0556 10.21C66.1456 10.61 66.2436 11.158 66.0556 11.448C65.8676 11.738 65.2437 12.012 64.9257 11.916C63.2037 11.396 61.7996 11.898 60.3896 12.894C58.7136 14.08 56.8576 14.972 54.7736 15.196C52.3956 15.452 50.9536 14.884 48.7936 12.97C47.2896 13.644 46.6716 15.026 46.9176 17.158C48.2556 17.358 49.6016 17.506 50.9276 17.758C60.5656 19.618 68.7136 27.88 70.4016 37.474C70.5296 38.212 70.1697 38.804 69.5077 38.942C68.8937 39.068 68.3076 38.674 68.1676 37.96C67.7097 35.6278 66.8919 33.381 65.7436 31.3C65.5436 30.93 65.3176 30.57 65.0717 30.154C64.1088 31.2909 63.3196 32.564 62.7297 33.932C62.2957 34.878 61.8436 35.824 61.3196 36.732C60.3756 38.362 58.9676 39.222 57.0276 39.154C55.6276 39.106 54.2276 39.086 52.8276 39.118C51.1696 39.156 49.8716 39.93 48.8936 41.244C47.9408 42.496 47.2962 43.9546 47.0117 45.502C46.9897 45.62 46.9696 45.736 46.9396 45.85C46.7556 46.534 46.2557 46.914 45.6577 46.826C45.0157 46.732 44.6177 46.2 44.7117 45.47C44.9604 43.774 45.5664 42.1502 46.4896 40.706C48.2696 37.788 50.9236 36.614 54.2676 36.786C55.2416 36.836 56.2196 36.818 57.1936 36.866C57.6 36.9009 58.0079 36.8171 58.3675 36.6246C58.7272 36.4322 59.0232 36.1395 59.2196 35.782C59.6739 35.0588 60.075 34.3035 60.4196 33.522C61.2316 31.602 62.2576 29.826 63.7176 28.258C62.3975 26.5401 60.8297 25.0277 59.0656 23.77C58.4916 24.294 57.9616 24.84 57.3696 25.304C55.8076 26.526 54.0856 26.998 52.1696 26.228C50.8016 25.68 49.6576 25.912 48.4776 26.856C47.5383 27.6326 46.4457 28.2024 45.2713 28.528C44.0968 28.8537 42.8668 28.928 41.6617 28.746C39.8757 28.492 38.4997 27.442 37.3957 26.094C36.4377 24.924 35.6237 23.638 34.6957 22.334C32.4321 23.5734 30.4017 25.1976 28.6957 27.134C28.8957 27.284 29.0956 27.408 29.2636 27.552C30.4096 28.512 31.6097 29.416 32.6837 30.452C34.6837 32.372 35.2316 34.696 34.2056 37.288C33.5956 38.828 32.8596 40.32 32.1436 41.816C32.0824 41.9464 31.9959 42.0633 31.889 42.1599C31.7822 42.2565 31.6571 42.3309 31.5213 42.3787C31.3854 42.4266 31.2413 42.4469 31.0975 42.4385C30.9537 42.4302 30.8131 42.3933 30.6837 42.33C30.5459 42.2721 30.4213 42.1868 30.3175 42.0793C30.2138 41.9717 30.133 41.8442 30.08 41.7045C30.0271 41.5647 30.0031 41.4157 30.0095 41.2664C30.016 41.1171 30.0528 40.9706 30.1176 40.836C30.4676 40.008 30.9017 39.212 31.2537 38.384C31.6057 37.556 31.9497 36.676 32.2537 35.804C32.6537 34.616 32.3316 33.57 31.5656 32.618C30.3656 31.138 28.8756 30.018 27.2556 28.95C26.1665 30.3989 25.2722 31.9844 24.5956 33.666C23.4597 36.4421 22.8742 39.4125 22.8716 42.412C22.8714 42.8482 22.7146 43.2697 22.4297 43.6C22.2037 43.816 21.5857 43.906 21.3377 43.748C20.9977 43.532 20.6216 43.014 20.6456 42.648C20.7676 40.688 20.8176 38.692 21.2456 36.786C22.343 31.8815 24.8887 27.4199 28.5527 23.9799C32.2167 20.5399 36.8297 18.2802 41.7936 17.494C42.7056 17.348 43.6317 17.282 44.5417 17.178C44.8337 15.088 44.1857 13.632 42.6797 12.964C39.7457 15.932 36.3977 15.792 32.6797 13.84C31.9058 13.4223 31.1572 12.9595 30.4377 12.454C29.3677 11.726 28.2237 11.49 26.9817 11.854C26.3597 12.032 25.7817 12.072 25.3817 11.476C24.9817 10.88 25.2316 10.354 25.6556 9.876C27.6416 7.602 29.8156 5.556 32.6156 4.308C33.3896 3.962 34.2296 3.77 35.0396 3.508H36.8957C37.6837 3.75 38.4957 3.946 39.2577 4.24C41.9257 5.26 43.0576 7.37001 43.3276 10.068C43.3536 10.31 43.3936 10.638 43.5556 10.766C44.2876 11.346 45.0656 11.868 45.7856 12.384C46.3445 11.9033 46.9301 11.4546 47.5396 11.04C47.7344 10.9429 47.8991 10.7946 48.0161 10.611C48.133 10.4275 48.1979 10.2156 48.2037 9.998C48.4977 6.712 50.0757 4.826 53.2577 3.892C53.7077 3.76 54.1597 3.636 54.6117 3.508L56.4316 3.5ZM36.8476 21.24C37.7776 23.01 38.7836 24.64 40.3896 25.788C40.8221 26.1041 41.3128 26.3316 41.8335 26.4576C42.3541 26.5836 42.8945 26.6054 43.4236 26.522C44.9186 26.3381 46.329 25.727 47.4856 24.762C48.067 24.2465 48.7683 23.8849 49.5254 23.7102C50.2824 23.5355 51.0712 23.5533 51.8196 23.762C52.2796 23.88 52.7397 24.006 53.1877 24.162C53.5226 24.291 53.883 24.3401 54.2403 24.3054C54.5976 24.2706 54.9418 24.1531 55.2457 23.962C55.8797 23.562 56.4457 23.068 57.1797 22.514C50.4857 18.938 43.8136 18.522 36.8476 21.24ZM40.8757 9.672C40.8605 9.45672 40.8338 9.24242 40.7957 9.03C40.2617 6.882 37.5757 5.376 35.1117 5.862C32.7117 6.334 30.9456 7.836 29.2856 9.312C30.4856 10.002 31.6476 10.724 32.8596 11.354C33.8839 11.904 34.9459 12.3805 36.0377 12.78C37.5717 13.32 38.9996 12.98 40.3856 11.954C39.3856 11.53 38.4836 11.154 37.5856 10.772C36.7996 10.434 36.5036 9.85599 36.7636 9.20599C37.0236 8.55599 37.6836 8.354 38.4436 8.66C39.2036 8.966 40.0137 9.31 40.8757 9.672ZM62.1457 9.31999C60.8657 8.13599 59.4357 7.014 57.7337 6.272C55.8237 5.442 54.0056 5.75 52.2696 6.734C51.1796 7.352 50.6857 8.364 50.5497 9.678C51.4117 9.318 52.1737 8.994 52.9497 8.678C53.7257 8.362 54.3737 8.54199 54.6537 9.15599C54.9557 9.81799 54.6537 10.42 53.8337 10.774C52.9437 11.16 52.0477 11.532 51.0577 11.952C52.1677 12.796 53.3517 13.288 54.5837 12.936C56.0497 12.516 57.4556 11.848 58.8396 11.186C59.9556 10.662 61.0137 9.96799 62.1457 9.31999Z" fill="url(#paint0_linear_1_487)"/>
<path d="M14.8264 53.246C16.5084 51.564 18.0704 49.998 19.6384 48.446C24.9804 43.136 32.9643 43.272 38.1403 48.738C38.3889 48.9686 38.7134 49.1002 39.0524 49.108C42.9804 49.132 46.9083 49.124 50.8363 49.124C53.0363 49.124 54.0683 49.634 55.4363 51.456C55.6243 51.282 55.8103 51.116 55.9863 50.94C58.7483 48.188 61.4864 45.41 64.2764 42.686C67.1284 39.902 71.7683 41.054 72.9024 44.81C73.5244 46.87 72.9503 48.648 71.4483 50.148C67.595 53.9987 63.7404 57.846 59.8844 61.69C59.4624 62.11 59.0464 62.536 58.6184 62.948C56.3744 65.106 53.6924 66.218 50.5724 66.226C45.4544 66.238 40.3344 66.306 35.2184 66.192C33.1144 66.146 31.4984 66.75 30.2644 68.576C30.6404 68.954 31.0643 69.376 31.4943 69.812C32.1823 70.52 32.1844 71.074 31.4844 71.78C30.0937 73.18 28.6937 74.574 27.2844 75.962C26.5504 76.69 26.0024 76.688 25.2664 75.962C19.305 70.018 13.3457 64.072 7.38839 58.124C6.65439 57.392 6.65439 56.842 7.38839 56.108C8.78039 54.7107 10.1804 53.3166 11.5884 51.926C12.2944 51.228 12.8504 51.226 13.5564 51.926C13.9764 52.318 14.3684 52.76 14.8264 53.246ZM28.7304 66.926C28.8804 66.712 29.0144 66.484 29.1844 66.286C30.6604 64.56 32.5264 63.886 34.8084 63.918C40.0664 63.998 45.3263 63.95 50.5863 63.94C51.7803 63.9581 52.9655 63.7342 54.0706 63.2819C55.1757 62.8295 56.1777 62.1581 57.0163 61.308C61.319 57.0413 65.6111 52.76 69.8924 48.464C71.1484 47.206 71.1844 45.418 70.0084 44.264C68.8324 43.11 67.0383 43.152 65.7863 44.394C62.617 47.5447 59.4557 50.704 56.3024 53.872C56.0934 54.0907 55.947 54.3614 55.8783 54.656C55.3763 56.752 53.6224 58.22 51.4644 58.23C46.1804 58.25 40.8964 58.24 35.6144 58.23C34.7904 58.23 34.2744 57.75 34.2964 57.058C34.3184 56.366 34.8104 55.964 35.6084 55.954C36.6324 55.954 37.6543 55.954 38.6783 55.954C42.8663 55.954 47.055 55.954 51.2443 55.954C52.3043 55.954 53.0983 55.524 53.5283 54.554C54.2103 53.02 53.0603 51.394 51.2943 51.39C47.0103 51.39 42.7264 51.374 38.4424 51.39C38.1142 51.4101 37.7861 51.3499 37.4864 51.2147C37.1867 51.0795 36.9245 50.8733 36.7224 50.614C32.6924 45.824 25.8383 45.516 21.3903 49.904C19.9003 51.374 18.4263 52.858 16.9463 54.338C16.8003 54.484 16.6724 54.646 16.5624 54.772L28.7304 66.926ZM29.0484 70.88L12.5764 54.422C11.6844 55.308 10.7323 56.256 9.89435 57.086L26.3764 73.534L29.0484 70.88Z" fill="url(#paint1_linear_1_487)"/>
</g>
<defs>
<linearGradient id="paint0_linear_1_487" x1="45.5359" y1="3.5" x2="45.5359" y2="46.8385" gradientUnits="userSpaceOnUse">
<stop stop-color="#DA3976"/>
<stop offset="1" stop-color="#F19400"/>
</linearGradient>
<linearGradient id="paint1_linear_1_487" x1="39.9939" y1="41.1442" x2="39.9939" y2="76.5072" gradientUnits="userSpaceOnUse">
<stop stop-color="#DA3976"/>
<stop offset="1" stop-color="#F19400"/>
</linearGradient>
<clipPath id="clip0_1_487">
<rect width="80" height="80" fill="white"/>
</clipPath>
</defs>
</svg>
