<svg width="80" height="80" viewBox="0 0 80 80" fill="none" xmlns="http://www.w3.org/2000/svg">
<g clip-path="url(#clip0_1_524)">
<path d="M61.818 53.502C61.192 57.798 60.5661 62.062 59.9501 66.328C59.6101 68.688 59.618 68.69 57.228 68.69C56.242 68.69 55.256 68.702 54.27 68.69C53.284 68.678 52.89 68.178 52.982 67.204C53.382 63.004 53.76 58.824 54.182 54.638C54.238 54.062 54.018 53.784 53.602 53.402C52.402 52.288 51.302 51.05 50.138 49.888C49.904 49.654 49.552 49.388 49.256 49.39C45.526 49.424 41.798 49.504 38.07 49.574C37.922 49.574 37.772 49.598 37.4 49.632C39.182 50.856 38.4921 52.468 38.3161 53.892C37.7541 58.434 37.0681 62.962 36.4121 67.492C36.2841 68.386 35.9161 68.682 35.0121 68.692C33.6801 68.704 32.3481 68.692 31.0121 68.692C29.9621 68.692 29.59 68.304 29.588 67.224C29.588 64.188 29.588 61.1527 29.588 58.118L29.272 58.082C29.202 58.2788 29.1419 58.4791 29.092 58.682C28.5027 61.602 27.9167 64.5233 27.334 67.446C27.134 68.446 26.844 68.688 25.818 68.696C24.792 68.704 23.794 68.696 22.78 68.696C21.766 68.696 21.322 68.27 21.42 67.284C22.02 61.284 21.458 55.32 20.964 49.344C20.778 47.078 19.402 45.636 18.144 44.048C17.6815 43.4971 17.1894 42.9716 16.67 42.474C15.836 41.628 14.996 40.892 13.78 40.474C11.44 39.674 10.276 37.644 9.61997 35.426C8.99197 33.294 8.61997 31.078 8.21997 28.888C8.11997 28.368 8.00804 28.14 7.44204 28.034C5.58795 27.6888 3.92838 26.6666 2.78598 25.166C1.89798 24.044 2.05797 23.366 3.37397 22.738C4.86997 22.014 6.46606 21.792 8.11206 21.826C8.36118 21.8078 8.60773 21.7643 8.848 21.696C8.7834 21.4589 8.69002 21.2305 8.56997 21.016C6.84742 18.713 5.96459 15.8901 6.06802 13.016C6.08602 12.338 6.08805 11.644 6.90005 11.378C7.71205 11.112 8.06406 11.682 8.45806 12.194C9.89948 14.0818 11.6143 15.744 13.546 17.126C13.8489 17.3024 14.1959 17.3885 14.546 17.374C16.546 17.394 18.53 17.394 20.52 17.362C20.908 17.362 21.4021 17.302 21.6581 17.066C23.3161 15.534 24.922 13.946 26.54 12.374C26.6663 12.2363 26.782 12.0892 26.886 11.934C27.232 11.478 27.638 11.176 28.252 11.378C28.866 11.58 29.028 12.06 29.052 12.626C29.2457 15.5775 28.3963 18.5032 26.652 20.892C26.49 21.118 26.3321 21.348 26.1161 21.652C26.3601 21.72 26.482 21.794 26.592 21.778C31.868 21.068 37.17 21.146 42.472 21.278C47.172 21.396 51.8341 20.908 56.5041 20.478C59.3401 20.216 62.1941 19.974 65.0081 20.692C66.0633 20.9399 67.0481 21.4252 67.8876 22.1111C68.727 22.797 69.3988 23.6653 69.852 24.65C69.962 24.874 70.112 25.162 70.314 25.25C72.256 26.02 73.286 27.594 74.052 29.406C75.052 31.784 75.474 34.304 75.76 36.848C75.92 38.274 75.99 39.712 76.118 41.144C76.1209 41.3484 76.1984 41.5448 76.336 41.696C77.936 42.864 78.042 44.58 77.972 46.296C77.8817 48.0403 77.2434 49.7116 76.148 51.072C75.436 51.994 74.72 51.994 74.014 51.05C72.414 48.906 71.794 46.52 72.436 43.896C72.6037 43.2293 72.9358 42.6153 73.402 42.11C73.5715 41.9534 73.7014 41.7588 73.781 41.5422C73.8606 41.3255 73.8877 41.0931 73.86 40.864C73.628 37.54 73.376 34.218 72.26 31.046C71.948 30.158 71.476 29.326 71.06 28.43C70.9 28.568 70.832 28.6 70.834 28.63C70.984 31.524 70.582 34.358 70.034 37.192C69.58 39.514 69.71 41.876 70.068 44.192C70.696 48.276 70.33 52.324 69.7961 56.368C69.33 59.904 68.7701 63.426 68.2541 66.956C68.0241 68.528 67.836 68.698 66.284 68.698C65.138 68.698 63.9921 68.698 62.8461 68.698C61.7001 68.698 61.294 68.298 61.396 67.142C61.722 63.456 62.078 59.772 62.42 56.086C62.4331 55.6069 62.478 55.1292 62.5541 54.656C62.7181 53.984 62.474 53.644 61.818 53.502ZM66.288 23.702C65.288 24.502 64.276 25.166 63.442 26.012C61.18 28.304 59.002 30.682 56.772 33.012C56.112 33.7 55.474 34.468 54.678 34.956C49.278 38.256 42.5701 34.916 41.8541 28.656C41.6841 27.16 41.254 25.694 40.92 24.218C40.792 23.648 40.4281 23.434 39.8161 23.448C37.7921 23.488 35.768 23.47 33.742 23.48C33.46 23.48 33.18 23.518 32.882 23.54C33.048 24.75 32.228 25.364 31.57 26.028C30.33 27.28 28.77 27.918 27.042 28.19C26.922 29.058 26.826 29.876 26.692 30.69C26.308 33.032 25.804 35.34 24.652 37.454C23.592 39.402 22 40.612 19.794 40.97C19.414 41.034 19.026 41.066 18.656 41.11C19.856 42.646 21 44.14 22.172 45.612C22.601 46.1879 23.0817 46.7235 23.6081 47.212C25.5284 48.9075 27.7194 50.2691 30.09 51.24C30.92 51.576 31.29 52.088 31.322 52.974C31.472 57.26 31.652 61.544 31.824 65.83C31.824 66.03 31.868 66.23 31.886 66.406H34.382C34.962 62.156 35.514 57.96 36.114 53.772C36.296 52.494 36.328 51.31 35.278 50.34C35.034 50.114 34.898 49.766 34.73 49.464C34.13 48.39 34.174 48.064 35.028 47.228C34.458 46.79 33.828 46.414 33.338 45.91C32.558 45.122 31.7381 44.322 31.1621 43.392C30.1621 41.812 30.392 40.25 31.628 38.838C32.6673 37.6784 34.0286 36.8548 35.538 36.472C39.21 35.458 42.996 36.128 45.08 40.272C45.402 40.914 45.748 41.544 46.042 42.2C46.7087 43.68 47.3567 45.1673 47.986 46.662C48.17 47.096 48.4 47.262 48.892 47.192C49.868 47.066 50.86 47.064 51.836 46.932C53.806 46.664 55.808 46.532 57.586 45.456C58.348 44.998 59.1041 45.496 59.2661 46.402C59.3513 46.9755 59.5183 47.5339 59.7621 48.06C60.6195 49.7966 62.052 51.1825 63.8161 51.982C64.8861 52.486 64.996 52.64 64.89 53.826C64.664 56.372 64.41 58.916 64.174 61.462C64.022 63.098 63.88 64.738 63.728 66.432H66.056C66.102 66.188 66.156 65.958 66.19 65.724C66.648 62.592 67.132 59.46 67.556 56.324C68.094 52.324 68.454 48.344 67.836 44.31C67.346 41.128 67.5781 37.962 68.1621 34.78C68.5381 32.732 68.588 30.6 68.548 28.508C68.518 26.66 67.8941 24.986 66.292 23.694L66.288 23.702ZM24.872 26.478C24.832 25.894 24.826 25.172 24.728 24.462C24.342 21.662 22.928 20 20.402 19.662C18.8211 19.4408 17.2203 19.3992 15.63 19.538C12.192 19.86 10.6301 21.538 10.3621 24.998C10.1141 28.116 10.626 31.156 11.51 34.13C12.64 37.93 14.2141 38.964 18.1541 38.902C20.6961 38.862 22.29 37.656 23.192 35.358C24.298 32.532 24.678 29.59 24.876 26.47L24.872 26.478ZM43.2621 23.602C43.6181 25.666 43.896 27.718 44.344 29.732C44.792 31.746 46.144 33.132 48.176 33.596C50.812 34.196 53.146 33.85 55.0961 31.596C57.424 28.906 59.992 26.424 62.47 23.866C62.846 23.478 63.3001 23.166 63.9161 22.652C62.7501 22.588 61.8261 22.452 60.9161 22.504C57.2001 22.744 53.49 23.07 49.774 23.316C47.618 23.46 45.4281 23.502 43.2661 23.594L43.2621 23.602ZM45.9001 47.36C44.9001 45.192 44.044 43.252 43.122 41.34C42.8505 40.7309 42.4672 40.178 41.992 39.71C41.44 39.206 40.77 38.71 40.068 38.51C38.3223 38.03 36.4585 38.2451 34.868 39.11C32.372 40.398 32.12 41.936 34.28 43.736C35.806 45.01 37.5241 46.054 39.1621 47.194C39.2907 47.2876 39.4433 47.3424 39.602 47.352C41.63 47.356 43.6481 47.352 45.9041 47.352L45.9001 47.36ZM57.768 66.412C58.388 61.628 59.0041 56.886 59.6081 52.144C59.6408 51.938 59.6042 51.727 59.5041 51.544C58.7401 50.41 57.95 49.294 57.18 48.186L52.436 49.202C53.414 50.354 54.366 51.452 55.724 52.096C56.302 52.37 56.57 52.79 56.51 53.428C56.2927 55.732 56.0781 58.0367 55.8661 60.342C55.6801 62.342 55.4981 64.354 55.3081 66.412H57.768ZM23.468 50.094C23.65 55.48 23.836 60.942 24.02 66.416H25.264C25.852 63.46 26.392 60.528 27.032 57.616C27.38 56.034 27.346 54.342 28.246 52.958L23.468 50.094ZM75.08 48.432C76.038 46.894 76.016 44.432 75.08 43.662C74.23 44.514 74.218 46.76 75.084 48.424L75.08 48.432ZM23.68 18.456L25.0081 19.546L26.6081 16.08L26.42 15.99L23.68 18.456ZM8.71606 15.976L8.53003 16.108L10.172 19.542L11.468 18.452L8.71606 15.976ZM8.20405 23.994L5.30405 24.32C6.07205 25.236 6.92205 25.738 8.05005 25.852L8.20405 23.994ZM29.938 24.646L29.852 24.31L26.9541 24.008C27.0181 24.732 27.064 25.27 27.134 26.074L29.938 24.646Z" fill="url(#paint0_linear_1_524)"/>
<path d="M14.8984 66.06C15.3344 66.06 15.6984 66.038 16.0724 66.06C16.8284 66.112 17.3405 66.646 17.3345 67.344C17.3367 67.5122 17.3048 67.679 17.2408 67.8345C17.1768 67.9899 17.0819 68.1308 16.9619 68.2486C16.8419 68.3663 16.6992 68.4585 16.5426 68.5196C16.3859 68.5807 16.2185 68.6094 16.0505 68.604C11.7838 68.6213 7.52311 68.6213 3.26844 68.604C3.10036 68.6079 2.93322 68.5775 2.77723 68.5148C2.62125 68.452 2.47972 68.3583 2.36112 68.2391C2.24252 68.1199 2.14939 67.9779 2.08739 67.8216C2.02539 67.6653 1.99582 67.4981 2.00048 67.33C2.00048 66.63 2.51645 66.108 3.27645 66.06C3.64445 66.036 4.01441 66.06 4.43641 66.06C4.23641 64.46 3.55648 63.214 2.60448 62.06C2.30848 61.702 2.03041 61.154 2.08241 60.736C2.13967 60.5154 2.24999 60.312 2.4037 60.1437C2.55741 59.9753 2.74989 59.8471 2.96444 59.77C3.20276 59.7421 3.44428 59.7653 3.67294 59.838C3.90159 59.9108 4.11209 60.0315 4.29042 60.192C5.70155 61.5928 6.63215 63.405 6.94842 65.368C6.97842 65.524 6.99846 65.684 7.03046 65.84C7.05713 65.9029 7.09066 65.9626 7.13046 66.018H8.28446C8.42246 64.762 8.49444 63.488 8.71044 62.238C9.35244 58.506 11.0465 55.292 13.6585 52.564C14.3305 51.862 15.0404 51.786 15.6204 52.316C16.2004 52.846 16.1884 53.62 15.4944 54.35C12.5324 57.466 11.0284 61.176 10.9484 65.474C10.9484 65.63 10.9484 65.788 10.9484 66.002H12.1845C12.4625 65.076 12.6165 64.102 13.0385 63.264C13.6055 62.1842 14.2702 61.1585 15.0244 60.2C15.5564 59.5 16.3544 59.48 16.9144 59.988C17.4744 60.496 17.4945 61.25 16.8965 61.904C15.8305 63.06 15.1024 64.384 14.8984 66.06Z" fill="url(#paint1_linear_1_524)"/>
</g>
<defs>
<linearGradient id="paint0_linear_1_524" x1="40.1086" y1="11.3104" x2="40.1086" y2="68.6996" gradientUnits="userSpaceOnUse">
<stop stop-color="#DA3976"/>
<stop offset="1" stop-color="#F19400"/>
</linearGradient>
<linearGradient id="paint1_linear_1_524" x1="9.66985" y1="51.97" x2="9.66985" y2="68.617" gradientUnits="userSpaceOnUse">
<stop stop-color="#DA3976"/>
<stop offset="1" stop-color="#F19400"/>
</linearGradient>
<clipPath id="clip0_1_524">
<rect width="80" height="80" fill="white"/>
</clipPath>
</defs>
</svg>
