<svg width="80" height="80" viewBox="0 0 80 80" fill="none" xmlns="http://www.w3.org/2000/svg">
<g clip-path="url(#clip0_1_453)">
<path d="M76.828 67.388C74.396 63.3133 71.9533 59.2466 69.5 55.188C69.2128 54.7547 69.0986 54.2294 69.18 53.716C69.422 52.014 69.58 50.302 69.78 48.56C70.3 48.524 70.78 48.522 71.234 48.452C71.9859 48.3547 72.6778 47.9902 73.1834 47.4252C73.689 46.8601 73.9745 46.1321 73.9879 45.374C74.0279 44.102 74.0279 42.824 73.9879 41.552C73.9339 39.784 72.616 38.494 70.798 38.426C69.6259 38.384 10.5479 38.392 9.29995 38.426C7.31195 38.474 6.04196 39.762 6.00996 41.748C5.99196 42.898 5.98996 44.048 6.00996 45.198C6.04396 47.164 7.34596 48.46 9.31596 48.516C9.60596 48.516 9.89395 48.542 10.1999 48.558C10.4219 50.446 10.658 52.252 10.83 54.064C10.8345 54.4301 10.7301 54.7893 10.53 55.096C8.11598 59.152 5.66796 63.19 3.26596 67.252C2.93112 67.8011 2.71516 68.4143 2.63198 69.052C2.48398 70.524 3.46197 71.852 4.87797 72.306C5.56282 72.5294 6.30318 72.514 6.97812 72.2622C7.65307 72.0105 8.22267 71.5373 8.59394 70.92C9.65594 69.228 10.6599 67.5 11.6939 65.79C11.7999 65.612 11.9319 65.452 12.1399 65.158C12.2199 65.842 13.1399 73.622 13.2439 74.37C13.5119 76.17 14.506 77.436 16.122 78.222C16.5566 78.4053 17.0013 78.5635 17.454 78.696H62.61C63.149 78.5156 63.6761 78.3012 64.1879 78.054C65.7879 77.16 66.614 75.75 66.814 73.938C67.114 71.234 67.436 68.538 67.752 65.828C67.7719 65.656 67.816 65.486 67.874 65.184C68.054 65.44 68.1819 65.598 68.2859 65.772C69.2859 67.418 70.258 69.072 71.258 70.714C72.308 72.436 74.232 72.958 75.834 71.976C77.408 71.018 77.84 69.082 76.828 67.388ZM9.54394 46.26C8.57794 46.26 8.27596 45.956 8.26596 45.014C8.25596 43.938 8.25196 42.864 8.26596 41.79C8.27796 41.004 8.57996 40.714 9.35996 40.67C9.58396 40.658 9.80998 40.67 10.034 40.67H69.96C70.186 40.67 70.4099 40.67 70.6359 40.67C71.3979 40.712 71.7339 41.032 71.7459 41.786C71.7639 42.91 71.756 44.036 71.7459 45.16C71.7459 45.854 71.368 46.248 70.682 46.254C68.632 46.272 66.582 46.276 64.534 46.242C64.306 46.242 64.01 45.996 63.872 45.782C63.288 44.882 62.754 43.95 62.2 43.03C61.102 41.206 59.364 40.612 57.704 41.47C57.316 41.6746 56.9733 41.9555 56.6964 42.2957C56.4195 42.6359 56.2141 43.0285 56.0926 43.45C55.971 43.8714 55.9358 44.3131 55.9889 44.7485C56.0421 45.1839 56.1826 45.6041 56.402 45.984C56.4264 46.0632 56.4405 46.1452 56.4439 46.228H23.6439C23.7699 45.492 24.0259 44.762 23.9919 44.048C23.9491 43.3674 23.6847 42.7196 23.239 42.2035C22.7934 41.6875 22.191 41.3315 21.524 41.19C20.8636 41.0253 20.1678 41.0771 19.5391 41.3378C18.9104 41.5985 18.3821 42.0543 18.032 42.638C17.3893 43.65 16.7713 44.6773 16.178 45.72C16.0983 45.899 15.9646 46.0486 15.7957 46.1479C15.6269 46.2473 15.4311 46.2913 15.2359 46.274C13.3439 46.246 11.4439 46.268 9.54394 46.26ZM67.512 48.584C67.416 49.44 67.324 50.252 67.232 51.062L67.0899 51.144C66.5939 50.324 66.0899 49.504 65.5439 48.584H67.512ZM14.476 48.548L12.816 51.316C12.688 50.282 12.586 49.46 12.472 48.548H14.476ZM6.85796 69.456C6.65796 69.8 6.55994 70.1 6.08794 70.19C5.14194 70.174 4.68794 69.53 4.93794 68.878C5.03854 68.6492 5.15901 68.4297 5.29795 68.222C10.0713 60.2646 14.846 52.3066 19.622 44.348C19.686 44.242 19.75 44.134 19.822 44.03C20.244 43.368 20.784 43.18 21.314 43.504C21.844 43.828 21.914 44.398 21.514 45.076C16.6313 53.2066 11.746 61.3333 6.85796 69.456ZM65.858 62.656C65.458 66.306 65.004 69.95 64.58 73.598C64.358 75.506 63.328 76.448 61.406 76.45H49.78C39.3546 76.45 28.9286 76.45 18.502 76.45C16.738 76.45 15.702 75.562 15.43 73.822C15.33 73.174 14.242 63.822 14.12 62.456C14.0881 62.0952 14.1625 61.733 14.334 61.414C16.782 57.292 19.264 53.188 21.716 49.066C21.8066 48.8825 21.9506 48.7306 22.1291 48.6303C22.3075 48.5301 22.5121 48.486 22.716 48.504C34.216 48.5173 45.7166 48.5173 57.218 48.504C57.4356 48.4833 57.6544 48.5298 57.8449 48.637C58.0355 48.7443 58.1887 48.9072 58.284 49.104C60.706 53.186 63.166 57.244 65.582 61.328C65.8079 61.7321 65.9069 62.1948 65.866 62.656H65.858ZM74.5859 70.056C74.2259 70.152 73.766 69.956 73.376 69.816C73.228 69.762 73.1479 69.502 73.0459 69.33C68.2259 61.3033 63.4073 53.2753 58.5899 45.246C58.4626 45.059 58.3579 44.8576 58.278 44.646C58.078 43.99 58.558 43.33 59.468 43.342C59.656 43.542 60.038 43.816 60.268 44.19C62.8693 48.482 65.456 52.7826 68.028 57.092C70.252 60.796 72.4746 64.5 74.6959 68.204C74.8497 68.431 74.9747 68.6762 75.068 68.934C75.214 69.428 75.0679 69.932 74.5939 70.056H74.5859Z" fill="url(#paint0_linear_1_453)"/>
<path d="M43.3896 56.062C43.3896 56.686 43.4036 57.31 43.3896 57.934C43.3456 59.622 42.0896 60.892 40.4596 60.916C39.6747 60.9402 38.9123 60.6521 38.3397 60.1147C37.7671 59.5774 37.4312 58.8348 37.4056 58.05C37.3456 56.728 37.3476 55.4 37.4056 54.078C37.4731 53.322 37.8247 52.6197 38.3894 52.1127C38.9541 51.6056 39.69 51.3314 40.4488 51.3454C41.2077 51.3593 41.933 51.6604 42.4787 52.1878C43.0244 52.7153 43.3499 53.43 43.3896 54.188C43.4036 54.812 43.3896 55.436 43.3896 56.062ZM41.1416 56.1C41.1416 55.5 41.1416 54.9 41.1416 54.3C41.1416 53.796 40.8836 53.404 40.4016 53.486C40.1156 53.536 39.6936 53.954 39.6756 54.228C39.5956 55.446 39.5956 56.668 39.6756 57.886C39.6936 58.156 40.1156 58.56 40.4076 58.618C40.9116 58.714 41.1376 58.306 41.1396 57.818C41.1416 57.246 41.1396 56.672 41.1416 56.1Z" fill="url(#paint1_linear_1_453)"/>
<path d="M36.062 68.3C36.062 68.998 36.118 69.7 36.052 70.396C35.9905 71.1386 35.6479 71.8297 35.0941 72.3281C34.5402 72.8266 33.817 73.0948 33.072 73.078C31.544 73.078 30.238 71.974 30.138 70.438C30.044 68.9675 30.044 67.4925 30.138 66.022C30.236 64.494 31.55 63.374 33.066 63.36C33.8116 63.3495 34.5335 63.6214 35.087 64.1211C35.6404 64.6208 35.9845 65.3112 36.05 66.054C36.118 66.794 36.062 67.548 36.062 68.3ZM33.84 68.242C33.84 67.642 33.852 67.042 33.84 66.442C33.828 65.95 33.56 65.552 33.074 65.654C32.79 65.714 32.392 66.136 32.372 66.416C32.294 67.616 32.328 68.804 32.344 69.998C32.344 70.478 32.58 70.824 33.112 70.798C33.644 70.772 33.83 70.414 33.842 69.94C33.852 69.382 33.842 68.81 33.84 68.238V68.242Z" fill="url(#paint2_linear_1_453)"/>
<path d="M22.7855 56.058C22.7855 55.432 22.7735 54.808 22.7855 54.184C22.7889 53.4085 23.0934 52.6646 23.6348 52.1094C24.1763 51.5542 24.9123 51.231 25.6875 51.2082C26.4627 51.1854 27.2164 51.4646 27.7896 51.987C28.3628 52.5094 28.7106 53.2341 28.7595 54.008C28.8395 55.3802 28.8395 56.7559 28.7595 58.128C28.6595 59.806 27.2915 60.966 25.6375 60.912C24.0515 60.86 22.8275 59.586 22.7855 57.93C22.7715 57.3 22.7855 56.682 22.7855 56.058ZM26.5395 56.112C26.5395 55.512 26.5395 54.912 26.5395 54.312C26.5395 53.826 26.2995 53.468 25.7915 53.462C25.2835 53.456 25.0375 53.782 25.0375 54.288V57.802C25.0375 58.294 25.2375 58.64 25.7655 58.646C26.2935 58.652 26.5195 58.306 26.5355 57.824C26.5595 57.258 26.5395 56.684 26.5395 56.112Z" fill="url(#paint3_linear_1_453)"/>
<path d="M58.04 56.078C58.04 56.702 58.064 57.328 58.04 57.95C57.962 59.676 56.668 60.928 54.998 60.916C53.328 60.904 52.072 59.622 52.044 57.884C52.024 56.66 52.022 55.436 52.044 54.212C52.076 52.498 53.376 51.196 55.024 51.192C55.808 51.1973 56.5594 51.506 57.1206 52.0535C57.6818 52.6009 58.0092 53.3444 58.034 54.128C58.068 54.776 58.038 55.428 58.04 56.078ZM54.29 56.022C54.29 56.646 54.28 57.268 54.29 57.89C54.3 58.36 54.556 58.718 55.016 58.628C55.302 58.57 55.728 58.212 55.742 57.968C55.8157 56.7024 55.8157 55.4336 55.742 54.168C55.728 53.92 55.238 53.476 55.038 53.512C54.8686 53.5674 54.7151 53.6626 54.5901 53.7896C54.4652 53.9166 54.3726 54.0718 54.32 54.242C54.21 54.81 54.29 55.424 54.29 56.022Z" fill="url(#paint4_linear_1_453)"/>
<path d="M50.7144 68.248C50.7144 68.898 50.7344 69.548 50.7144 70.196C50.6661 70.9573 50.3297 71.6716 49.7735 72.1937C49.2174 72.7157 48.4832 73.0063 47.7204 73.0063C46.9576 73.0063 46.2234 72.7157 45.6672 72.1937C45.111 71.6716 44.7746 70.9573 44.7264 70.196C44.6944 68.898 44.6964 67.596 44.7264 66.298C44.7264 65.5023 45.0424 64.7393 45.605 64.1767C46.1677 63.6141 46.9307 63.298 47.7264 63.298C48.522 63.298 49.2851 63.6141 49.8477 64.1767C50.4103 64.7393 50.7264 65.5023 50.7264 66.298C50.7324 66.948 50.7144 67.598 50.7144 68.248ZM48.4644 68.222C48.4644 67.622 48.4644 67.022 48.4644 66.422C48.4644 65.916 48.1583 65.548 47.6863 65.652C47.5172 65.7151 47.3661 65.8186 47.2462 65.9535C47.1262 66.0884 47.0412 66.2506 46.9984 66.426C46.9224 67.626 46.9624 68.816 46.9704 70.012C46.9704 70.474 47.1964 70.788 47.6804 70.812C48.2004 70.83 48.4524 70.518 48.4644 70.012C48.4764 69.418 48.4644 68.82 48.4644 68.222Z" fill="url(#paint5_linear_1_453)"/>
<path d="M68.8397 9.66803C68.8397 7.10603 67.5317 5.79402 64.9777 5.79402H64.0277C63.9026 5.79402 63.7825 5.74429 63.694 5.65577C63.6054 5.56726 63.5557 5.4472 63.5557 5.32202C63.5557 5.15402 63.5557 4.99003 63.5557 4.82803C63.5337 2.72803 62.1217 1.30803 60.0177 1.30603C52.5817 1.30603 49.1437 1.30603 41.7077 1.30603H29.8917C29.7669 1.30603 29.6472 1.35548 29.5587 1.44357C29.4702 1.53165 29.4203 1.65119 29.4197 1.77603V14.45C29.4192 14.5749 29.3692 14.6944 29.2808 14.7825C29.1923 14.8706 29.0725 14.92 28.9477 14.92H27.6257C27.5006 14.92 27.3805 14.9697 27.292 15.0583C27.2034 15.1468 27.1537 15.2668 27.1537 15.392V18.95C27.1535 19.012 27.141 19.0733 27.117 19.1305C27.0931 19.1877 27.0581 19.2395 27.0141 19.2832C26.9701 19.3268 26.9179 19.3614 26.8605 19.3849C26.8031 19.4083 26.7417 19.4203 26.6797 19.42C26.4457 19.42 26.2237 19.42 26.0037 19.42C24.2177 19.466 22.7077 20.758 22.6817 22.53C22.6137 26.914 22.6537 27.3 22.6577 31.73C22.6577 31.8549 22.7072 31.9746 22.7953 32.0631C22.8834 32.1515 23.0029 32.2015 23.1277 32.202H24.4197C24.5449 32.202 24.665 32.1523 24.7535 32.0638C24.842 31.9753 24.8917 31.8552 24.8917 31.73V23.554C24.8917 21.97 25.2437 21.54 26.6737 21.68C26.7904 21.6915 26.8987 21.7459 26.9774 21.8328C27.0562 21.9197 27.0998 22.0328 27.0997 22.15V37.98C27.0997 38.1049 27.0503 38.2246 26.9622 38.3131C26.8741 38.4015 26.7546 38.4515 26.6297 38.452H20.8697C20.7446 38.452 20.6245 38.4023 20.536 38.3138C20.4475 38.2253 20.3977 38.1052 20.3977 37.98V37.542C20.3977 30.13 20.3977 22.716 20.3817 15.302C20.3804 14.7566 20.2199 14.2235 19.9197 13.768C18.4017 11.47 16.8417 9.19803 15.2937 6.91803L15.1797 6.75403C15.1366 6.69092 15.0787 6.63928 15.0111 6.6036C14.9435 6.56792 14.8682 6.54927 14.7917 6.54927C14.7153 6.54927 14.64 6.56792 14.5724 6.6036C14.5048 6.63928 14.4469 6.69092 14.4037 6.75403C12.8477 9.04803 11.3338 11.304 9.78375 13.532C9.34664 14.1322 9.12402 14.862 9.15172 15.604C9.18372 17.29 9.19771 38.568 9.19771 38.568L68.8417 38.508V9.66803H68.8397ZM13.6157 38.006C13.6157 38.1307 13.5662 38.2502 13.4781 38.3384C13.3899 38.4265 13.2704 38.476 13.1457 38.476H11.8977C11.7729 38.476 11.6531 38.4266 11.5647 38.3385C11.4762 38.2504 11.4263 38.1309 11.4257 38.006L11.3997 18.606C11.3999 18.5416 11.4132 18.4779 11.4389 18.4188C11.4646 18.3597 11.5021 18.3065 11.5491 18.2625C11.5962 18.2185 11.6517 18.1845 11.7124 18.1628C11.773 18.141 11.8374 18.1319 11.9017 18.136L13.1757 18.218C13.2951 18.2257 13.4071 18.2785 13.4888 18.3659C13.5706 18.4532 13.616 18.5684 13.6157 18.688V38.006ZM12.6857 15.932C12.3658 15.9309 12.0567 15.8161 11.8137 15.608C11.6557 15.442 11.5797 14.982 11.6977 14.808C12.5597 13.466 13.4637 12.152 14.3997 10.778C14.4427 10.7141 14.5008 10.6617 14.5688 10.6255C14.6368 10.5893 14.7127 10.5703 14.7897 10.5703C14.8668 10.5703 14.9426 10.5893 15.0107 10.6255C15.0787 10.6617 15.1367 10.7141 15.1797 10.778C16.1317 12.178 17.0597 13.526 17.9537 14.9C17.9908 15.0168 17.997 15.1411 17.9717 15.261C17.9465 15.3808 17.8907 15.4921 17.8097 15.584C17.5398 15.7937 17.2129 15.9171 16.8717 15.938C15.4757 15.966 14.0797 15.964 12.6857 15.932ZM18.1117 37.994C18.1117 38.1192 18.062 38.2393 17.9735 38.3278C17.885 38.4163 17.7649 38.466 17.6397 38.466H16.4057C16.2805 38.466 16.1605 38.4163 16.072 38.3278C15.9835 38.2393 15.9337 38.1192 15.9337 37.994V18.682C15.9339 18.5635 15.9785 18.4494 16.0589 18.3623C16.1394 18.2752 16.2496 18.2216 16.3677 18.212L17.6077 18.126C17.6722 18.1213 17.737 18.13 17.7981 18.1516C17.8591 18.1731 17.915 18.2069 17.9623 18.2511C18.0096 18.2952 18.0473 18.3486 18.073 18.4079C18.0987 18.4673 18.1119 18.5313 18.1117 18.596V37.994ZM31.6677 12.088C31.6675 12.0261 31.6794 11.9648 31.7029 11.9075C31.7264 11.8503 31.761 11.7983 31.8047 11.7544C31.8484 11.7105 31.9002 11.6757 31.9574 11.652C32.0145 11.6282 32.0758 11.616 32.1377 11.616H33.3477C33.4729 11.616 33.593 11.6658 33.6815 11.7543C33.77 11.8428 33.8197 11.9628 33.8197 12.088V14.414C33.8197 14.5392 33.77 14.6593 33.6815 14.7478C33.593 14.8363 33.4729 14.886 33.3477 14.886H32.1377C32.0129 14.8855 31.8934 14.8355 31.8053 14.7471C31.7172 14.6586 31.6677 14.5389 31.6677 14.414V12.088ZM36.0677 38.006C36.0672 38.1309 36.0172 38.2504 35.9288 38.3385C35.8403 38.4266 35.7205 38.476 35.5957 38.476H29.8997C29.7751 38.476 29.6555 38.4265 29.5674 38.3384C29.4792 38.2502 29.4297 38.1307 29.4297 38.006V22.176C29.4297 22.0512 29.4792 21.9314 29.5672 21.843C29.6553 21.7545 29.7749 21.7046 29.8997 21.704H35.5897C35.7149 21.704 35.835 21.7538 35.9235 21.8423C36.012 21.9308 36.0617 22.0508 36.0617 22.176L36.0677 38.006ZM36.0977 18.902C36.0977 18.964 36.0855 19.0254 36.0618 19.0827C36.0381 19.1399 36.0033 19.192 35.9595 19.2358C35.9157 19.2796 35.8636 19.3144 35.8064 19.3381C35.7491 19.3618 35.6877 19.374 35.6257 19.374H29.9017C29.8397 19.374 29.7784 19.3618 29.7211 19.3381C29.6638 19.3144 29.6118 19.2796 29.568 19.2358C29.5241 19.192 29.4894 19.1399 29.4656 19.0827C29.4419 19.0254 29.4297 18.964 29.4297 18.902V17.702C29.4297 17.64 29.4419 17.5787 29.4656 17.5214C29.4894 17.4641 29.5241 17.4121 29.568 17.3683C29.6118 17.3244 29.6638 17.2897 29.7211 17.266C29.7784 17.2422 29.8397 17.23 29.9017 17.23H35.6257C35.7509 17.23 35.871 17.2798 35.9595 17.3683C36.048 17.4568 36.0977 17.5768 36.0977 17.702V18.902ZM61.3137 38.018C61.3121 38.1409 61.2621 38.2582 61.1744 38.3444C61.0868 38.4305 60.9686 38.4786 60.8457 38.478H38.8457C38.7205 38.478 38.6005 38.4283 38.512 38.3398C38.4235 38.2513 38.3737 38.1312 38.3737 38.006V15.406C38.3737 15.2812 38.3243 15.1614 38.2362 15.073C38.1481 14.9845 38.0286 14.9346 37.9037 14.934H36.5957C36.4711 14.934 36.3515 14.8845 36.2634 14.7964C36.1752 14.7082 36.1257 14.5887 36.1257 14.464V9.79003C36.1257 9.66485 36.076 9.54479 35.9875 9.45627C35.8989 9.36776 35.7789 9.31803 35.6537 9.31803H32.1437C32.0189 9.3175 31.8993 9.26754 31.8112 9.17908C31.7232 9.09062 31.6737 8.97086 31.6737 8.84602V4.01803C31.6737 3.89338 31.7232 3.77382 31.8114 3.68568C31.8995 3.59754 32.0191 3.54802 32.1437 3.54802H59.8077C60.9017 3.54802 61.3037 3.91402 61.3037 4.93602C61.3037 15.9627 61.3037 26.9887 61.3037 38.014L61.3137 38.018ZM66.5997 37.87V37.982C66.5997 38.1072 66.55 38.2273 66.4615 38.3158C66.373 38.4043 66.2529 38.454 66.1277 38.454H64.0817C63.9566 38.454 63.8365 38.4043 63.748 38.3158C63.6594 38.2273 63.6097 38.1072 63.6097 37.982V8.51202C63.6097 8.38684 63.6594 8.26679 63.748 8.17827C63.8365 8.08976 63.9566 8.04003 64.0817 8.04003C64.5097 8.04003 64.5597 8.04003 64.5477 8.04003L65.4217 8.05002C66.1537 8.05002 66.5517 8.49203 66.5977 9.22803C66.5977 9.32803 66.5977 9.42803 66.5977 9.52603L66.5997 37.87Z" fill="url(#paint6_linear_1_453)"/>
<path d="M54.1856 10.942H41.3856C41.2763 10.942 41.1716 10.9854 41.0943 11.0627C41.017 11.1399 40.9736 11.2447 40.9736 11.354V21.7C40.9736 21.8093 41.017 21.9141 41.0943 21.9913C41.1716 22.0686 41.2763 22.112 41.3856 22.112H54.1856C54.2949 22.112 54.3997 22.0686 54.477 21.9913C54.5542 21.9141 54.5976 21.8093 54.5976 21.7V11.36C54.5984 11.3054 54.5884 11.2512 54.568 11.2005C54.5477 11.1498 54.5174 11.1037 54.4791 11.0648C54.4408 11.0259 54.3951 10.995 54.3447 10.9739C54.2943 10.9529 54.2402 10.942 54.1856 10.942ZM51.9236 19.826H43.6176C43.5084 19.826 43.4035 19.7826 43.3263 19.7053C43.249 19.6281 43.2056 19.5233 43.2056 19.414V13.614C43.2056 13.56 43.2163 13.5065 43.237 13.4567C43.2577 13.4068 43.2881 13.3615 43.3264 13.3234C43.3647 13.2853 43.4101 13.2551 43.4601 13.2346C43.5101 13.2142 43.5636 13.2038 43.6176 13.204H51.9236C52.0326 13.204 52.1371 13.2471 52.2143 13.324C52.2915 13.4008 52.3351 13.5051 52.3356 13.614V19.414C52.3356 19.5233 52.2922 19.6281 52.2149 19.7053C52.1377 19.7826 52.0329 19.826 51.9236 19.826Z" fill="url(#paint7_linear_1_453)"/>
<path d="M54.1876 24.418H41.3876C41.16 24.418 40.9756 24.6024 40.9756 24.83V26.16C40.9756 26.3875 41.16 26.572 41.3876 26.572H54.1876C54.4151 26.572 54.5996 26.3875 54.5996 26.16V24.83C54.5996 24.6024 54.4151 24.418 54.1876 24.418Z" fill="url(#paint8_linear_1_453)"/>
<path d="M54.1876 28.91H41.3876C41.16 28.91 40.9756 29.0945 40.9756 29.322V30.652C40.9756 30.8796 41.16 31.064 41.3876 31.064H54.1876C54.4151 31.064 54.5996 30.8796 54.5996 30.652V29.322C54.5996 29.0945 54.4151 28.91 54.1876 28.91Z" fill="url(#paint9_linear_1_453)"/>
<path d="M58.6077 5.84375H57.2597C57.0321 5.84375 56.8477 6.02821 56.8477 6.25575V7.58975C56.8477 7.81729 57.0321 8.00175 57.2597 8.00175H58.6077C58.8352 8.00175 59.0197 7.81729 59.0197 7.58975V6.25575C59.0197 6.02821 58.8352 5.84375 58.6077 5.84375Z" fill="url(#paint10_linear_1_453)"/>
<path d="M58.5984 10.3199H57.2724C57.0448 10.3199 56.8604 10.5044 56.8604 10.7319V12.0699C56.8604 12.2975 57.0448 12.4819 57.2724 12.4819H58.5984C58.8259 12.4819 59.0104 12.2975 59.0104 12.0699V10.7319C59.0104 10.5044 58.8259 10.3199 58.5984 10.3199Z" fill="url(#paint11_linear_1_453)"/>
</g>
<defs>
<linearGradient id="paint0_linear_1_453" x1="39.9954" y1="38.3974" x2="39.9954" y2="78.696" gradientUnits="userSpaceOnUse">
<stop stop-color="#DA4C76"/>
<stop offset="1" stop-color="#FEC51D"/>
</linearGradient>
<linearGradient id="paint1_linear_1_453" x1="40.3786" y1="51.3448" x2="40.3786" y2="60.9174" gradientUnits="userSpaceOnUse">
<stop stop-color="#DA4C76"/>
<stop offset="1" stop-color="#FEC51D"/>
</linearGradient>
<linearGradient id="paint2_linear_1_453" x1="33.0758" y1="63.3597" x2="33.0758" y2="73.0787" gradientUnits="userSpaceOnUse">
<stop stop-color="#DA4C76"/>
<stop offset="1" stop-color="#FEC51D"/>
</linearGradient>
<linearGradient id="paint3_linear_1_453" x1="25.7994" y1="51.2069" x2="25.7994" y2="60.9138" gradientUnits="userSpaceOnUse">
<stop stop-color="#DA4C76"/>
<stop offset="1" stop-color="#FEC51D"/>
</linearGradient>
<linearGradient id="paint4_linear_1_453" x1="55.0394" y1="51.192" x2="55.0394" y2="60.9161" gradientUnits="userSpaceOnUse">
<stop stop-color="#DA4C76"/>
<stop offset="1" stop-color="#FEC51D"/>
</linearGradient>
<linearGradient id="paint5_linear_1_453" x1="47.7154" y1="63.298" x2="47.7154" y2="73.0063" gradientUnits="userSpaceOnUse">
<stop stop-color="#DA4C76"/>
<stop offset="1" stop-color="#FEC51D"/>
</linearGradient>
<linearGradient id="paint6_linear_1_453" x1="38.9956" y1="1.30603" x2="38.9956" y2="38.568" gradientUnits="userSpaceOnUse">
<stop stop-color="#DA4C76"/>
<stop offset="1" stop-color="#FEC51D"/>
</linearGradient>
<linearGradient id="paint7_linear_1_453" x1="47.7856" y1="10.942" x2="47.7856" y2="22.112" gradientUnits="userSpaceOnUse">
<stop stop-color="#DA4C76"/>
<stop offset="1" stop-color="#FEC51D"/>
</linearGradient>
<linearGradient id="paint8_linear_1_453" x1="47.7876" y1="24.418" x2="47.7876" y2="26.572" gradientUnits="userSpaceOnUse">
<stop stop-color="#DA4C76"/>
<stop offset="1" stop-color="#FEC51D"/>
</linearGradient>
<linearGradient id="paint9_linear_1_453" x1="47.7876" y1="28.91" x2="47.7876" y2="31.064" gradientUnits="userSpaceOnUse">
<stop stop-color="#DA4C76"/>
<stop offset="1" stop-color="#FEC51D"/>
</linearGradient>
<linearGradient id="paint10_linear_1_453" x1="57.9337" y1="5.84375" x2="57.9337" y2="8.00175" gradientUnits="userSpaceOnUse">
<stop stop-color="#DA4C76"/>
<stop offset="1" stop-color="#FEC51D"/>
</linearGradient>
<linearGradient id="paint11_linear_1_453" x1="57.9354" y1="10.3199" x2="57.9354" y2="12.4819" gradientUnits="userSpaceOnUse">
<stop stop-color="#DA4C76"/>
<stop offset="1" stop-color="#FEC51D"/>
</linearGradient>
<clipPath id="clip0_1_453">
<rect width="80" height="80" fill="white"/>
</clipPath>
</defs>
</svg>
