<svg width="80" height="80" viewBox="0 0 80 80" fill="none" xmlns="http://www.w3.org/2000/svg">
<path d="M59.7163 8.75611C54.3696 5.0035 48.3068 3.12419 41.8969 2.23641C40.5961 2.05686 39.2854 1.93517 37.9807 1.78754H32.9033C32.7038 1.82943 32.5203 1.8813 32.3267 1.91123C30.5572 2.17257 28.7636 2.31023 27.024 2.70923C21.5138 3.93616 16.624 6.34614 12.7457 10.5576L12.7158 10.5915C11.1515 12.3167 10.0083 14.3811 9.37612 16.6225L8.13527 20.9437L6.93826 25.1332C6.70377 26.2873 6.30677 27.4023 5.75918 28.4449C5.21654 29.4584 5.43795 30.5337 5.96862 31.5232C6.33371 32.2015 6.73273 32.8619 7.13572 33.5182C7.45492 34.0389 7.44099 34.5157 7.1178 35.0464C6.19005 36.5244 5.0207 37.8361 3.65848 38.9267C2.97219 39.4973 2.24002 40.0379 1.66346 40.7082C1.31463 41.0926 1.05134 41.5467 0.891078 42.0404C0.730819 42.5341 0.677181 43.0562 0.733757 43.5722C0.790333 44.0881 0.955828 44.5862 1.21926 45.0335C1.4827 45.4807 1.83813 45.867 2.26197 46.1666C2.8485 46.6035 3.57063 46.8609 4.23496 47.1881C4.53222 47.3357 4.83352 47.4574 5.33027 47.6688C4.70783 48.2494 4.26689 48.814 3.69432 49.1611C2.44345 49.9192 2.34969 51.8384 3.49482 52.8279C3.84993 53.1312 4.1971 53.4444 4.57416 53.7756C4.01156 54.6833 3.78615 55.593 4.04949 56.6384C4.35473 57.8534 5.55568 57.7856 6.3457 58.3342C6.27189 58.4938 6.22199 58.6035 6.16812 58.7132C4.62199 61.8733 5.74319 65.3407 8.86937 66.9686C10.5283 67.855 12.4156 68.2221 14.2859 68.022C16.4106 67.7945 18.5373 67.5551 20.65 67.224C23.7522 66.7491 26.3118 67.6788 28.0873 70.2404C29.1966 71.8364 30.0824 73.616 30.9083 75.3856C31.9876 77.6978 33.7991 78.6554 36.2949 78.015L41.7731 76.6045C47.1876 75.208 52.6041 73.8334 58.0106 72.415C59.6066 71.994 60.9193 70.801 61.1926 69.1292C61.4659 67.4574 60.5941 65.6479 60.1113 64.0798C59.5103 62.0228 59.0727 59.9215 58.8026 57.7955C58.5612 56.0499 58.4773 54.2703 59.8798 52.9696C61.2823 51.6688 62.6868 50.2863 63.9976 48.8599C66.7906 45.8255 68.8415 42.3821 69.6974 38.2863C70.3557 35.1481 70.4694 31.9701 70.4075 28.784C70.2559 20.3013 66.645 13.618 59.7163 8.75611ZM68.0036 34.5796C67.7143 38.7072 66.4515 42.4978 63.7542 45.6718C62.0026 47.7327 60.0555 49.6279 58.1442 51.5491C57.3901 52.3053 56.8315 53.1112 56.608 54.1646C56.3846 55.218 56.4285 56.3132 56.5083 57.3846C56.7277 60.3152 57.3921 63.0324 58.256 65.8274C58.5393 66.7471 59.1916 67.8963 58.9622 68.9078C58.7627 69.7776 57.8769 70.1407 57.0969 70.3422C50.0239 72.1722 42.9515 73.9983 35.8799 75.8204C34.2539 76.2394 33.6395 75.8664 32.8993 74.3202C32.0874 72.6245 31.2854 70.8928 30.23 69.3447C27.9777 66.0369 24.8295 64.4389 20.7557 64.9696C19.0799 65.1871 17.4061 65.4205 15.7303 65.6459C13.8091 65.9013 11.9198 65.9392 10.0983 65.0933C8.12527 64.1756 6.95421 61.6818 8.26892 59.5192C9.00708 58.3042 8.62806 57.0454 7.40711 56.3272C7.00811 56.0938 6.58109 55.9122 6.06837 55.6589C6.25693 55.3786 6.46495 55.112 6.69084 54.8609C7.47488 54.1087 7.48886 53.5781 6.75669 52.7721C6.22202 52.1736 5.72128 51.5591 5.26442 51.0185C5.63549 50.6015 6.1502 50.0828 6.60307 49.5102C7.8699 47.9142 7.34325 45.9671 5.44201 45.2329C4.90737 45.0524 4.38712 44.8317 3.88584 44.5726C2.86639 43.9741 2.70679 42.7771 3.5447 41.9372C4.00355 41.4843 4.52828 41.0993 5.03102 40.6923C6.65968 39.4058 8.04417 37.8375 9.11875 36.0619C9.43008 35.5285 9.59783 34.9236 9.60552 34.306C9.61322 33.6885 9.46063 33.0796 9.16268 32.5387C8.97982 32.1591 8.76346 31.7966 8.51625 31.4554C7.95166 30.7511 7.64845 29.8454 7.9497 28.9576C8.25095 28.0698 8.72971 27.2259 9.00702 26.3042C9.68931 24.0459 10.1741 21.7317 10.8684 19.4833C11.2953 18.1008 11.5926 16.7262 12.233 15.4075C14.0485 11.6648 17.432 8.8818 21.1188 7.07632C23.3008 6.03654 25.6013 5.26677 27.9697 4.78405C33.3562 3.62894 38.7427 3.86235 44.1293 4.87183C49.2884 5.83941 54.1562 7.57508 58.4794 10.6235C63.6166 14.2424 66.8764 19.0843 67.8799 25.3506C68.3706 28.417 68.219 31.4993 68.0036 34.5796Z" fill="url(#paint0_linear_1_540)"/>
<path d="M79.0803 34.39C78.7731 33.991 78.3282 33.8474 77.7656 33.8933C77.6459 33.9052 73.5083 33.9132 68.1018 33.9152C68.0061 33.7836 66.414 31.2618 65.6599 30.0788C65.0454 29.1132 64.0818 29.1451 63.5072 30.1446C62.787 31.3995 59.9641 36.3132 59.9063 36.407C59.8764 36.3412 55.8465 28.391 55.1881 27.1023C54.843 26.414 54.1447 26.1506 53.5761 26.5357C53.3271 26.7207 53.1327 26.9695 53.0135 27.2559C52.3631 28.7741 50.9107 32.1656 50.0529 33.9152C45.5781 33.9152 42.3481 33.9152 42.2404 33.8933C41.6778 33.8474 41.2429 33.993 40.9277 34.39C40.7919 34.5762 40.7218 34.8021 40.7282 35.0324C40.7232 35.2576 40.7934 35.478 40.9277 35.6589C41.2349 36.0579 41.6818 36.1975 42.2504 36.1696C43.0484 36.1297 50.7471 36.1696 50.7471 36.1696C51.5112 36.1696 51.8085 35.9701 52.1037 35.2738C52.1396 35.188 54.1686 30.3721 54.2424 30.2145C54.8828 31.4733 58.7331 39.0803 58.7411 39.0943C58.9745 39.5531 59.2639 39.9142 59.8245 39.9302C60.423 39.9481 60.7322 39.5711 60.9995 39.0983C60.9995 39.0983 60.9995 39.0983 60.9995 39.0883C61.5522 38.1147 63.9641 33.9152 63.9641 33.9112C63.9641 33.9072 64.5626 32.8718 64.6584 32.7142C64.8818 33.0653 66.0828 34.9247 66.384 35.4414C66.5065 35.6757 66.6946 35.8693 66.9252 35.9986C67.1558 36.1279 67.4191 36.1873 67.6828 36.1696C69.0514 36.1476 70.42 36.1696 71.6908 36.1696C71.6908 36.1696 76.9736 36.1377 77.7716 36.1696C78.3402 36.1975 78.7871 36.0599 79.0963 35.6589C79.2299 35.4777 79.3 35.2575 79.2958 35.0324C79.2967 34.8004 79.2209 34.5746 79.0803 34.39Z" fill="url(#paint1_linear_1_540)"/>
<path d="M51.6147 26.9287C53.1728 24.9337 53.496 22.7252 52.5344 20.403C51.5488 18.023 49.7414 16.5726 47.1598 16.2135C45.0012 15.9102 43.1438 16.6125 41.4959 18.1068C40.2934 16.9341 38.7064 16.2373 37.0292 16.1457C34.3938 15.9761 31.7524 17.5561 30.5833 20.0339C29.3963 22.5516 29.8172 25.4205 31.7264 27.3636C34.3106 29.9877 36.9154 32.5899 39.5409 35.1701C40.676 36.2933 42.274 36.2993 43.4251 35.204C43.6545 34.9846 50.4556 28.1896 50.4556 28.1896C50.8693 27.7952 51.2565 27.374 51.6147 26.9287ZM49.5997 25.8594C49.3683 26.1167 42.286 33.193 42.1683 33.3187C41.6735 33.8494 41.3085 33.7995 40.8157 33.3008C38.4037 30.8569 36.0137 28.3891 33.5199 26.029C31.0979 23.7387 32.1035 19.4993 35.505 18.5397C37.3284 18.025 39.1778 18.6813 40.3848 20.2753C40.9833 21.0574 41.6236 21.2389 42.1942 20.7561C42.3741 20.5852 42.534 20.3945 42.671 20.1876C43.0292 19.6996 43.4832 19.2899 44.0052 18.9835C44.5272 18.6772 45.1063 18.4806 45.707 18.4059C46.3077 18.3312 46.9173 18.3799 47.4985 18.5491C48.0797 18.7182 48.6202 19.0042 49.087 19.3896C51.1718 21.0913 51.3952 23.8504 49.5997 25.8594Z" fill="url(#paint2_linear_1_540)"/>
<path d="M57.899 16.3551C57.7086 16.3089 57.5325 16.2168 57.386 16.0867C57.2396 15.9566 57.1274 15.7926 57.0591 15.609C55.6227 12.3152 52.4187 10.3022 48.8276 10.6214C47.4531 10.7411 46.1125 11.2738 44.7559 11.6189C44.4267 11.7027 43.4232 10.4678 43.1599 10.2643C41.5299 8.96556 39.1598 8.2693 37.095 8.19748C35.9586 8.14203 34.8253 8.35599 33.7873 8.82192C33.3111 9.08315 32.8508 9.37227 32.4087 9.68776C31.8102 10.0529 31.2256 10.408 30.657 10.803C30.278 11.0663 30.0227 11.202 29.5479 11.0643C27.6871 10.4855 25.6748 10.6454 23.9288 11.511C22.1829 12.3766 20.8373 13.8812 20.1713 15.7127C20.11 15.8954 20.0036 16.0597 19.8621 16.1905C19.7205 16.3212 19.5483 16.4142 19.3614 16.4608C18.2631 16.8411 17.251 17.4348 16.3832 18.2078C15.5153 18.9808 14.8089 19.9179 14.3048 20.965C13.8006 22.0121 13.5085 23.1486 13.4454 24.3091C13.3822 25.4695 13.5493 26.631 13.9369 27.7267C14.0862 28.1505 14.0669 28.6154 13.8831 29.0254C12.6302 31.7825 12.8137 34.4738 14.5673 36.9416C16.3209 39.4095 18.7468 40.5167 21.7374 40.1835C22.8625 40.0598 23.9518 39.6189 25.091 39.3017C25.1154 39.2952 25.1414 39.2972 25.1646 39.3073C25.1878 39.3175 25.2069 39.3352 25.2187 39.3576C26.4855 41.6578 28.4825 42.9486 31.2516 42.9865C32.1992 42.9985 32.7399 43.3277 33.107 44.2254C34.1803 46.8455 35.2516 49.467 36.3209 52.0898C36.8376 53.3646 37.7334 54.1726 39.102 54.41C40.2291 54.6095 41.3543 54.809 42.4935 54.9566C44.5723 55.2279 45.6995 53.8573 45.087 51.8344C44.7199 50.6254 44.3469 49.4165 43.9619 48.1616H43.9718C43.6965 47.5332 42.9743 44.9277 42.8725 44.5706C42.8661 44.5439 42.8694 44.5157 42.8819 44.4912C42.8943 44.4668 42.9151 44.4475 42.9404 44.4369L47.1299 42.7232C47.1476 42.716 47.1668 42.7135 47.1856 42.7159C47.2045 42.7183 47.2225 42.7257 47.2377 42.7371C48.4673 43.6206 49.8939 44.1905 51.3938 44.3973C52.8936 44.6042 54.4213 44.4418 55.8441 43.9242C56.6541 43.6449 57.5239 43.3396 57.5897 43.3037L57.7374 43.2199C57.9802 43.0855 58.1667 42.8684 58.2629 42.6081C58.3592 42.3478 58.3589 42.0616 58.2621 41.8015C58.2028 41.6525 58.1124 41.5179 57.9967 41.4069C57.8811 41.2958 57.743 41.2109 57.5918 41.1578C57.4405 41.1046 57.2796 41.0846 57.1199 41.0989C56.9602 41.1132 56.8054 41.1616 56.666 41.2409C55.8154 41.7255 54.8828 42.0494 53.9149 42.1965C51.9498 42.5057 50.1483 42.0209 48.5284 40.8718C48.5061 40.8558 48.4901 40.8324 48.4832 40.8058C48.4763 40.7792 48.4788 40.751 48.4905 40.7262C48.6561 40.3591 48.8077 40.0499 48.9334 39.7287C49.2586 38.9127 49.0711 38.3062 48.4227 38.0309C47.7743 37.7556 47.2377 38.0668 46.8726 38.8848C45.5758 41.7975 42.4935 42.8469 39.7364 41.2788C39.086 40.9097 38.5633 40.9197 37.9788 41.4224C36.5105 42.6913 34.7049 42.5775 33.4002 41.1471C33.0012 40.7142 32.5803 40.5027 32.0177 40.6364C29.2865 41.2808 26.5753 38.9486 26.7728 36.1436C26.8187 35.4833 26.4975 35.0783 25.885 34.8429C23.8321 34.0449 23.475 32.0798 25.1149 30.6533C25.6755 30.1606 25.7913 29.5102 25.4043 29.0115C25.0172 28.5127 24.3569 28.413 23.7504 28.8878C22.288 30.013 21.6516 31.5072 21.9329 33.3406C22.1603 34.8169 23.0102 35.8783 24.3269 36.6763C24.3427 36.6852 24.3561 36.6979 24.3659 36.7131C24.3758 36.7284 24.3816 36.7458 24.3832 36.7639C24.3848 36.7819 24.3819 36.8001 24.3749 36.8168C24.3679 36.8336 24.3569 36.8483 24.3429 36.8598C24.2391 36.9456 24.1713 37.0055 24.0955 37.0593C23.0367 37.7784 21.7636 38.1135 20.4879 38.0089C19.2123 37.9044 18.0109 37.3664 17.0833 36.4845C16.1557 35.6026 15.5578 34.4298 15.389 33.161C15.2202 31.8923 15.4906 30.604 16.1553 29.5102C16.5164 28.9117 16.682 28.409 16.3548 27.7147C14.4795 23.7247 16.5663 19.4374 20.8915 18.3621C21.1729 18.315 21.433 18.1829 21.637 17.9835C21.841 17.7841 21.9791 17.527 22.0326 17.2469C22.9802 13.6558 26.3239 12.0598 29.7334 13.5341C30.0237 13.6635 30.3476 13.6971 30.6582 13.63C30.9688 13.5629 31.2501 13.3987 31.4611 13.1611C32.317 12.1795 33.5957 11.5651 34.8047 11.1441C36.2551 10.6294 37.8591 10.6693 39.3414 11.0144C40.1676 11.189 40.951 11.5257 41.6462 12.0052C42.3414 12.4846 42.9345 13.0972 43.3912 13.8075C44.0735 14.805 44.5663 14.8768 45.5399 14.1366C49.0351 11.4793 53.8551 12.9616 55.2217 17.1431C55.2986 17.4531 55.4666 17.7328 55.7042 17.9462C55.9418 18.1596 56.2379 18.2968 56.5543 18.3401C58.9483 18.8529 60.5643 20.3232 61.2266 22.6633C61.889 25.0035 61.2785 27.1361 59.501 28.8718C58.7847 29.5721 58.7488 29.8913 59.2636 30.7651C59.4521 31.0863 59.6194 31.4195 59.7644 31.7626C59.8266 31.9091 59.9213 32.0396 60.0412 32.1443C60.1612 32.249 60.3033 32.3251 60.4569 32.367C60.6105 32.4089 60.7716 32.4153 60.9281 32.386C61.0845 32.3566 61.2324 32.2922 61.3604 32.1975L61.486 32.1057C61.6763 31.964 61.8125 31.7617 61.8724 31.5321C61.9322 31.3025 61.9121 31.0594 61.8152 30.8429C61.5718 30.2962 61.5758 29.9651 61.9568 29.4703C62.7997 28.4117 63.3713 27.1633 63.6218 25.8335C63.8723 24.5038 63.7942 23.1329 63.3942 21.8402C62.9943 20.5475 62.2846 19.3721 61.3269 18.4162C60.3692 17.4602 59.1924 16.7527 57.899 16.3551ZM35.8621 44.7302C36.9015 44.3312 37.8311 43.8743 38.8147 43.6748C39.2835 43.579 40.2112 43.9022 40.3349 44.2434C41.2825 47.0065 42.0865 49.8174 42.9284 52.6224C42.9284 52.6364 42.9085 52.6583 42.8486 52.7561C41.6935 52.5566 40.4945 52.397 39.3174 52.1356C39.1432 52.0829 38.9815 51.9952 38.8422 51.8779C38.703 51.7606 38.589 51.6161 38.5074 51.4534C37.5578 49.2389 36.662 47.0025 35.7942 44.8818C35.786 44.8672 35.7814 44.8509 35.7805 44.8342C35.7796 44.8175 35.7825 44.8008 35.789 44.7854C35.7956 44.77 35.8056 44.7563 35.8183 44.7453C35.8309 44.7343 35.8459 44.7264 35.8621 44.7222V44.7302Z" fill="url(#paint3_linear_1_540)"/>
<defs>
<linearGradient id="paint0_linear_1_540" x1="35.5671" y1="1.78754" x2="35.5671" y2="78.2094" gradientUnits="userSpaceOnUse">
<stop stop-color="#DA3976"/>
<stop offset="1" stop-color="#F19400"/>
</linearGradient>
<linearGradient id="paint1_linear_1_540" x1="60.0119" y1="26.3578" x2="60.0119" y2="39.9308" gradientUnits="userSpaceOnUse">
<stop stop-color="#DA3976"/>
<stop offset="1" stop-color="#F19400"/>
</linearGradient>
<linearGradient id="paint2_linear_1_540" x1="41.4984" y1="16.1332" x2="41.4984" y2="36.019" gradientUnits="userSpaceOnUse">
<stop stop-color="#DA3976"/>
<stop offset="1" stop-color="#F19400"/>
</linearGradient>
<linearGradient id="paint3_linear_1_540" x1="38.4198" y1="8.1889" x2="38.4198" y2="54.9908" gradientUnits="userSpaceOnUse">
<stop stop-color="#DA3976"/>
<stop offset="1" stop-color="#F19400"/>
</linearGradient>
</defs>
</svg>
