<svg width="80" height="80" viewBox="0 0 80 80" fill="none" xmlns="http://www.w3.org/2000/svg">
<path d="M25.4763 69.2309C25.9232 71.0963 26.364 72.9257 26.803 74.7551C26.9785 75.4873 27.162 76.2195 27.3276 76.9496C27.5271 77.8274 27.0623 78.4599 26.1645 78.4798C24.9436 78.5077 23.7206 78.4958 22.4996 78.4798C21.8253 78.4798 21.4703 78.0808 21.2748 77.4564C20.7501 75.8105 20.2074 74.1706 19.557 72.5147C19.3775 73.2848 19.192 74.0549 19.0184 74.825C18.783 75.8644 18.5595 76.9037 18.3221 77.9431C18.1326 78.7771 17.7854 79.0584 16.9256 79.0663C15.948 79.0743 14.9705 79.0743 13.993 79.0663C12.9237 79.0663 12.5107 78.5816 12.6264 77.5082C12.9163 74.8615 13.207 72.2135 13.4982 69.5641C13.5082 69.4564 13.4982 69.3466 13.4982 69.1451C12.8139 69.1451 12.1316 69.1451 11.4513 69.1451C10.4298 69.1451 10.0149 68.7681 9.99098 67.7486C9.73961 56.5307 12.0797 45.9751 18.0588 36.3571C19.4094 34.1846 21.3705 33.1531 23.9201 33.5641C26.4219 33.9631 27.9102 35.5352 28.6563 37.9531C29.2389 39.8284 30.0369 41.6339 30.7391 43.4713L30.9765 43.4354C31.0577 43.2991 31.1316 43.1586 31.1979 43.0145C32.4307 40.0321 34.2026 37.3026 36.4249 34.9626C40.7162 30.3741 48.395 31.3516 51.0763 37.0235C53.1072 41.3187 56.1196 44.7182 59.565 47.8304C60.5066 48.6823 61.0453 49.6519 60.8598 50.9347C60.7671 51.3663 60.6465 51.7915 60.4987 52.2075C61.4962 53.1451 61.4403 54.4279 61.3725 55.7008C61.3499 55.9882 61.218 56.256 61.004 56.4492C60.7899 56.6424 60.5101 56.7462 60.2218 56.7393C59.9336 56.7324 59.659 56.6153 59.4544 56.4121C59.2499 56.2089 59.131 55.9351 59.1222 55.6469C59.1002 55.226 59.1221 54.803 59.1121 54.3821C59.1021 53.9611 58.9007 53.6399 58.4319 53.6479C57.9631 53.6559 57.7655 53.9452 57.7675 54.394C57.7675 54.5935 57.7675 54.793 57.7675 54.9925C57.7675 62.257 57.7675 69.5215 57.7675 76.7861C57.7811 77.095 57.7489 77.4043 57.6718 77.7038C57.61 77.9453 57.4616 78.1556 57.2549 78.295C57.0483 78.4344 56.7976 78.4931 56.5506 78.4599C56.2906 78.4568 56.0412 78.357 55.8508 78.18C55.6605 78.0029 55.5429 77.7613 55.5211 77.5023C55.4971 77.2817 55.4892 77.0597 55.4972 76.8379C55.4972 69.4843 55.4972 62.1307 55.4972 54.7771C55.4972 54.2085 55.587 53.6399 55.6408 52.9816C51.6707 50.7252 48.6324 47.3696 45.8892 43.6369C44.7922 44.7941 43.9435 46.1635 43.3955 47.6609C42.1506 50.8788 41.8254 54.2444 41.7576 57.6579C41.6997 60.5985 42.3561 63.4434 42.9366 66.2803C43.6648 69.7995 44.4967 73.2948 45.2867 76.8C45.5142 77.7975 45.167 78.3242 44.1596 78.4818C43.1521 78.6394 42.0987 78.799 41.0692 78.9686C39.7565 79.186 39.4234 78.8649 39.1321 77.5521C38.4159 74.3282 37.6179 71.1222 36.8498 67.9102C36.8378 67.8584 36.7839 67.8145 36.6722 67.6609C36.4608 68.9576 36.2613 70.1466 36.0737 71.3377C35.7545 73.3327 35.4433 75.3277 35.1201 77.3227C34.9985 78.0768 34.6034 78.4559 33.8813 78.4659C32.5266 78.4838 31.172 78.4878 29.8174 78.4659C28.9216 78.4499 28.4348 77.8035 28.6583 76.9377C29.576 73.4085 29.8892 69.7975 29.8892 66.1786C29.8892 62.0948 29.576 58.011 29.56 53.9292C29.56 52.3013 29.209 51.0324 27.8663 50.0469C27.3057 49.6479 26.8848 49.0494 26.2823 48.403C26.1147 49.9132 25.9231 51.2738 25.8194 52.6404C25.4463 57.606 25.7835 62.5357 26.6174 67.4394C26.7929 68.5287 26.6015 68.8339 25.4763 69.2309ZM44.5506 41.6798L44.1516 41.0035C44.0259 40.804 43.8942 40.5885 43.7765 40.3751C43.3656 39.6309 43.4852 38.9786 44.0917 38.6354C44.6982 38.2923 45.2887 38.5177 45.7556 39.2339C46.5256 40.4309 47.2658 41.6439 48.1037 42.789C50.2623 45.7456 52.6923 48.4409 55.8085 50.4479C56.2534 50.7372 56.7242 50.9905 57.193 51.2459C57.6618 51.5013 58.1586 51.4554 58.4818 50.9706C58.785 50.5157 58.6653 50.0848 58.2703 49.7237C58.0568 49.5242 57.8353 49.3427 57.6239 49.1471C54.1625 45.9551 51.0842 42.4938 49.1072 38.1068C47.2458 33.9791 41.604 33.0314 38.4239 36.2394C33.7675 40.9337 31.4952 46.6294 31.7286 53.2668C31.8144 55.6848 32.0199 58.0988 32.1276 60.5167C32.321 64.6226 32.1776 68.7375 31.6987 72.82C31.5611 73.9332 31.3835 75.0404 31.2219 76.1596H32.9416C32.9671 76.1023 32.9878 76.0429 33.0035 75.9821C33.7217 71.5372 34.4385 67.091 35.154 62.6434C35.3176 61.622 35.6269 61.203 36.2972 61.1651C36.9675 61.1272 37.3166 61.4544 37.59 62.42C38.4757 65.5342 39.3695 68.6464 40.2114 71.7706C40.6423 73.3666 40.9715 74.9985 41.3525 76.6444L42.8149 76.3851C42.771 76.1397 42.749 75.9661 42.7111 75.7866C42.1126 73.1691 41.4862 70.5616 40.9436 67.9322C40.1077 63.8703 39.196 59.8205 39.5291 55.609C39.9222 50.5137 40.8079 45.61 44.5506 41.6798ZM29.6478 48.7402C29.7042 48.3117 29.7848 47.8867 29.8892 47.4674C30.0887 46.827 29.9531 46.3142 29.596 45.7357C28.1862 43.4744 27.111 41.0211 26.4039 38.4519C26.0049 36.9556 25.0294 36.0299 23.4853 35.8125C21.995 35.601 20.778 36.1696 20.0658 37.4823C18.7251 39.9521 17.3146 42.404 16.2233 44.9875C13.3705 51.7427 12.2333 58.8529 12.2333 66.1626C12.2333 66.3761 12.2572 66.5915 12.2712 66.8229H24.0917C24.1256 66.7471 24.1435 66.7252 24.1415 66.7072C24.0617 66.0908 23.978 65.4763 23.9002 64.8599C23.1261 58.7412 23.1142 52.6424 24.3351 46.5696C24.3895 46.2361 24.3282 45.894 24.1615 45.6C23.3376 44.2175 22.6313 42.795 22.366 41.191C22.2443 40.4668 22.6054 39.9102 23.2438 39.7686C23.3914 39.7372 23.544 39.736 23.6921 39.7652C23.8402 39.7943 23.9809 39.8532 24.1056 39.9382C24.2303 40.0232 24.3365 40.1326 24.4178 40.2598C24.4991 40.3871 24.5538 40.5294 24.5785 40.6783C25.203 43.99 27.4313 46.2604 29.6478 48.7402ZM20.9615 69.1831C21.7096 71.4853 22.4219 73.6958 23.156 75.8983C23.1981 75.9774 23.2574 76.0461 23.3296 76.0993C23.4018 76.1525 23.485 76.1888 23.573 76.2055C23.9714 76.2334 24.3711 76.2381 24.77 76.2195C24.1975 73.8255 23.6408 71.5112 23.0842 69.1831H20.9615ZM15.0044 76.7442C16.2214 76.8818 16.2214 76.8818 16.4529 75.8384C16.4868 75.6868 16.5187 75.5352 16.5526 75.3836C17.0134 73.3327 17.4722 71.2818 17.9391 69.199H15.8264L15.0044 76.7442Z" fill="url(#paint0_linear_1_494)"/>
<path d="M53.9875 22.2245C55.2664 22.2261 56.516 22.6075 57.5777 23.3204C58.6395 24.0332 59.4657 25.0453 59.9514 26.2284C60.4371 27.4114 60.5605 28.7121 60.306 29.9654C60.0514 31.2187 59.4304 32.3681 58.5216 33.2679C57.6128 34.1677 56.4572 34.7773 55.2015 35.0195C53.9457 35.2616 52.6464 35.1253 51.4682 34.6278C50.29 34.1304 49.2862 33.2942 48.5839 32.2254C47.8817 31.1566 47.5126 29.9033 47.5237 28.6245C47.5421 26.9217 48.231 25.2949 49.4411 24.0968C50.6511 22.8987 52.2847 22.226 53.9875 22.2245ZM53.9576 24.5008C52.8657 24.5247 51.8266 24.9752 51.0628 25.7558C50.299 26.5365 49.8713 27.5852 49.8713 28.6773C49.8713 29.7695 50.299 30.8182 51.0628 31.5989C51.8266 32.3795 52.8657 32.83 53.9576 32.8539C54.5137 32.8661 55.0667 32.767 55.5841 32.5626C56.1015 32.3582 56.5727 32.0525 56.9704 31.6634C57.368 31.2744 57.684 30.8099 57.8997 30.2971C58.1154 29.7843 58.2264 29.2336 58.2264 28.6773C58.2264 28.1211 58.1154 27.5704 57.8997 27.0576C57.684 26.5448 57.368 26.0803 56.9704 25.6913C56.5727 25.3022 56.1015 24.9965 55.5841 24.7921C55.0667 24.5877 54.5137 24.4886 53.9576 24.5008Z" fill="url(#paint1_linear_1_494)"/>
<path d="M36.6441 29.0271C36.6406 30.2357 36.2784 31.416 35.6037 32.4186C34.9289 33.4213 33.9718 34.2012 32.8535 34.6595C31.7353 35.1179 30.5062 35.2342 29.3218 34.9936C28.1375 34.753 27.051 34.1664 26.2002 33.3081C25.3494 32.4497 24.7725 31.3582 24.5424 30.1718C24.3123 28.9853 24.4394 27.7573 24.9077 26.6431C25.3759 25.529 26.1641 24.5788 27.1727 23.9129C28.1813 23.247 29.3647 22.8953 30.5733 22.9024C32.1888 22.9151 33.7337 23.5661 34.871 24.7135C36.0083 25.861 36.6458 27.4116 36.6441 29.0271ZM34.3658 29.0271C34.3685 28.2712 34.1473 27.5313 33.7301 26.9008C33.313 26.2703 32.7185 25.7775 32.0216 25.4844C31.3247 25.1913 30.5567 25.1111 29.8143 25.2539C29.072 25.3966 28.3885 25.756 27.85 26.2867C27.3116 26.8174 26.9424 27.4956 26.7888 28.2358C26.6352 28.976 26.7043 29.7451 26.9872 30.4462C27.2702 31.1473 27.7542 31.7488 28.3786 32.1751C29.0029 32.6014 29.7395 32.8333 30.4954 32.8416C31.0002 32.849 31.5015 32.7561 31.9701 32.5684C32.4387 32.3806 32.8653 32.1017 33.2253 31.7478C33.5854 31.3939 33.8715 30.9721 34.0673 30.5068C34.263 30.0415 34.3645 29.5419 34.3658 29.0371V29.0271Z" fill="url(#paint2_linear_1_494)"/>
<path d="M65.4181 26.2444C66.5193 26.2444 67.5448 26.2325 68.5682 26.2444C69.1667 26.2444 69.6675 26.1207 69.9228 25.5202C70.1782 24.9197 69.8869 24.4709 69.4719 24.0559C62.8924 17.4817 56.3134 10.9081 49.7352 4.3352C45.6135 0.237444 39.2215 0.255399 35.0619 4.3352C33.7093 5.65989 32.3867 7.01451 30.9582 8.44493C30.9283 8.17162 30.8943 8.00404 30.8943 7.83646C30.8943 6.37411 30.8943 4.91177 30.8943 3.44743C30.8844 1.86937 29.9647 0.94169 28.3986 0.92573C27.3672 0.92573 26.3378 0.91376 25.3063 0.92573C23.7881 0.94568 22.8484 1.88134 22.8444 3.40952C22.8351 7.55649 22.8351 11.7035 22.8444 15.8504C22.8581 16.0733 22.8219 16.2964 22.7384 16.5035C22.6548 16.7106 22.5261 16.8964 22.3617 17.0474C20.0102 19.3723 17.6694 21.7091 15.3393 24.0579C14.7408 24.6564 14.5692 25.235 14.9862 25.6918C15.2756 25.9924 15.6622 26.1804 16.0774 26.2225C17.1467 26.2923 18.2241 26.2464 19.3832 26.2464C19.3832 27.4195 19.3672 28.5367 19.3832 29.6559C19.3971 30.3801 19.8998 30.8529 20.5522 30.8529C21.2046 30.8529 21.6275 30.3701 21.6754 29.6818C21.6754 29.61 21.6754 29.5382 21.6754 29.4664C21.6754 28.0998 21.6754 26.7352 21.6754 25.3686C21.6754 24.3492 21.2645 23.9601 20.2191 23.9522C19.7742 23.9522 19.3293 23.9522 18.7388 23.9522C19.04 23.635 19.2255 23.4295 19.4211 23.234C21.1328 21.5202 22.8665 19.8305 24.5363 18.0788C24.8799 17.6991 25.0808 17.2118 25.1048 16.7003C25.1487 12.5108 25.1308 8.32124 25.1308 4.11575V3.28582H28.5502C28.5502 3.49929 28.5821 3.70678 28.5821 3.91625C28.5821 5.71176 28.5622 7.50727 28.5921 9.30279C28.606 10.2025 28.5922 11.0165 27.7742 11.6629C27.2415 12.0818 27.3313 12.818 27.7881 13.2589C28.2769 13.7297 28.9392 13.6998 29.5098 13.1352C31.8879 10.7691 34.2612 8.39705 36.63 6.01899C37.7361 4.87256 39.1657 4.09096 40.7278 3.7786C43.423 3.24992 45.8868 3.82049 47.8439 5.74767C53.8709 11.6868 59.826 17.6958 65.7991 23.6788C65.8624 23.7635 65.9191 23.8528 65.9687 23.9462C65.3821 23.9462 64.8674 23.9342 64.3527 23.9462C63.5547 23.9701 63.1138 24.3971 63.1058 25.205C63.0898 26.668 63.0898 28.1311 63.1058 29.5941C63.1058 30.3661 63.6106 30.8669 64.2869 30.8469C64.9632 30.827 65.3861 30.3382 65.3981 29.5941C65.43 28.5128 65.4181 27.4315 65.4181 26.2444Z" fill="url(#paint3_linear_1_494)"/>
<defs>
<linearGradient id="paint0_linear_1_494" x1="35.6888" y1="32.0614" x2="35.6888" y2="79.0723" gradientUnits="userSpaceOnUse">
<stop stop-color="#DA3976"/>
<stop offset="1" stop-color="#F19400"/>
</linearGradient>
<linearGradient id="paint1_linear_1_494" x1="53.9793" y1="22.2245" x2="53.9793" y2="35.1362" gradientUnits="userSpaceOnUse">
<stop stop-color="#DA3976"/>
<stop offset="1" stop-color="#F19400"/>
</linearGradient>
<linearGradient id="paint2_linear_1_494" x1="30.5374" y1="22.9023" x2="30.5374" y2="35.1158" gradientUnits="userSpaceOnUse">
<stop stop-color="#DA3976"/>
<stop offset="1" stop-color="#F19400"/>
</linearGradient>
<linearGradient id="paint3_linear_1_494" x1="42.3877" y1="0.92041" x2="42.3877" y2="30.8529" gradientUnits="userSpaceOnUse">
<stop stop-color="#DA3976"/>
<stop offset="1" stop-color="#F19400"/>
</linearGradient>
</defs>
</svg>
