<svg width="80" height="80" viewBox="0 0 80 80" fill="none" xmlns="http://www.w3.org/2000/svg">
<path d="M10.4738 19.3895C11.8703 19.6289 13.4145 19.8763 14.9526 20.1676C15.5511 20.2833 15.8344 20.7342 15.7386 21.3307C15.6429 21.9272 15.2119 22.2584 14.6134 22.1726C13.0653 21.9491 11.5212 21.6898 9.98301 21.4045C9.38451 21.2928 9.10123 20.8379 9.19699 20.2434C9.29275 19.6489 9.71966 19.3736 10.4738 19.3895Z" fill="url(#paint0_linear_1_503)"/>
<path d="M65.5585 22.1825C64.8084 22.2184 64.3615 21.9611 64.2598 21.3167C64.1581 20.6723 64.5032 20.2573 65.1356 20.1456C66.6299 19.8823 68.1281 19.6309 69.6224 19.4075C70.2568 19.3137 70.7097 19.6229 70.8055 20.2653C70.9012 20.9077 70.558 21.3227 69.9276 21.4364C68.4353 21.7077 66.9331 21.9491 65.5585 22.1825Z" fill="url(#paint1_linear_1_503)"/>
<path d="M18.6888 10.8728C18.6768 11.7666 17.9087 12.3312 17.2763 11.972C15.8519 11.1641 14.4634 10.2903 13.0868 9.37853C12.616 9.06532 12.596 8.52267 12.9033 8.04587C13.2105 7.56906 13.7212 7.41145 14.204 7.69474C15.5746 8.49275 16.9232 9.33863 18.2539 10.2085C18.4992 10.3621 18.601 10.7212 18.6888 10.8728Z" fill="url(#paint2_linear_1_503)"/>
<path d="M62.1766 12.0898C61.9911 11.9322 61.5561 11.7367 61.4624 11.4374C61.3566 11.1003 61.4245 10.4698 61.6619 10.3102C63.0245 9.36658 64.4409 8.49476 65.8754 7.66284C65.9777 7.5996 66.0928 7.55962 66.2123 7.54572C66.3318 7.53182 66.453 7.54435 66.5672 7.58241C66.6814 7.62047 66.7858 7.68313 66.8731 7.76597C66.9604 7.84882 67.0284 7.94981 67.0724 8.06184C67.208 8.41296 67.206 9.10722 66.9905 9.25885C65.5681 10.2424 64.0718 11.1202 62.6015 12.0279C62.4627 12.0646 62.3201 12.0853 62.1766 12.0898Z" fill="url(#paint3_linear_1_503)"/>
<path d="M9.31448 32.7581C9.45213 32.6125 9.67561 32.1716 9.9988 32.0778C11.521 31.6349 13.0651 31.2618 14.6152 30.9167C15.1618 30.795 15.5988 31.0983 15.7484 31.6449C15.898 32.1915 15.7045 32.7362 15.116 32.8978C13.5878 33.3167 12.047 33.6938 10.4936 34.0289C9.82922 34.1706 9.31049 33.6658 9.31448 32.7581Z" fill="url(#paint4_linear_1_503)"/>
<path d="M69.4348 34.0469C67.9745 33.6818 66.4283 33.3227 64.9001 32.9017C64.3016 32.7401 64.1021 32.2354 64.2497 31.6588C64.3974 31.0823 64.8482 30.787 65.4467 30.9207C66.945 31.2618 68.4393 31.6389 69.9216 32.0279C70.5201 32.1835 70.7754 32.6264 70.6657 33.2249C70.556 33.8234 70.1251 34.0628 69.4348 34.0469Z" fill="url(#paint5_linear_1_503)"/>
<path d="M48.5367 69.2169C47.7686 68.3391 47.0365 67.4214 46.2325 66.5815C45.0703 65.4002 44.0148 64.1184 43.0783 62.7511C42.3367 61.6373 41.6855 60.4658 41.1312 59.2479C40.0539 56.8539 39.3557 54.1845 39.6908 51.5491C39.9376 49.6507 40.751 47.8708 42.0249 46.4419C42.232 46.175 42.3342 45.8414 42.3122 45.5042C41.995 41.598 41.6459 37.6958 41.3048 33.7915C41.1053 31.597 41.5322 30.5357 43.2219 29.0155C43.0324 28.8439 41.3726 21.2349 40.1976 16.405C39.2559 12.5446 38.7192 9.02344 42.3521 7.58105C44.3471 6.78304 46.1626 7.2 47.7845 8.56259C51.9461 12.0559 58.0429 29.4643 58.3222 32.5646C58.779 37.6479 59.2918 42.7392 59.625 47.8244C59.7606 49.9172 60.5008 51.4713 62.418 52.5406C62.7591 52.1416 63.1421 51.6649 63.5372 51.208C64.1816 50.4659 64.7342 50.41 65.4943 51.0484C67.0065 52.3092 68.5134 53.5727 70.015 54.8389C70.813 55.5072 70.8489 56.0519 70.1826 56.8479C64.7947 63.2878 59.4042 69.7264 54.011 76.1636C53.3466 76.9616 52.802 77.0035 52.016 76.3432C50.5051 75.0823 48.9989 73.8148 47.4973 72.5406C46.7412 71.9003 46.6993 71.3437 47.3177 70.5856C47.6888 70.1407 48.0958 69.7137 48.5367 69.2169ZM60.9217 54.2105C60.6983 54.0808 60.4609 53.9671 60.2494 53.8115C58.404 52.4948 57.5681 50.6992 57.4045 48.4249C57.0275 43.192 56.5227 37.9691 56.0539 32.7441C55.8325 30.2663 50.8868 14.1367 46.2523 10.2504C44.8937 9.11123 43.5132 9.19901 42.4618 10.4638C41.7057 11.3816 41.9451 12.9915 42.3621 14.6993C43.6628 20.0219 44.7741 24.1456 45.5182 28.0858C45.5721 28.3671 46.0808 28.2514 46.3661 28.2853C48.4928 28.6005 50.1047 30.2165 50.3002 32.3591C50.779 37.608 51.2299 42.8588 51.6828 48.1197C51.7526 48.9376 51.3237 49.4923 50.6334 49.5322C49.9431 49.5721 49.5003 49.1152 49.4224 48.3232C49.3227 47.3077 49.2429 46.2903 49.1531 45.2728C48.7887 41.1086 48.4256 36.9456 48.0638 32.784C47.9741 31.7307 47.4653 30.9885 46.4678 30.6374C44.8858 30.0928 43.3696 31.3776 43.5192 33.1332C43.8803 37.3905 44.2473 41.6479 44.6444 45.9012C44.6932 46.2255 44.6622 46.5568 44.5537 46.8663C44.4452 47.1758 44.2626 47.454 44.022 47.6768C41.9831 49.7217 41.3886 52.411 42.0729 55.1781C42.4858 56.8459 43.2379 58.4279 44.0519 59.9342C44.8321 61.3798 45.7586 62.7416 46.8169 63.998C47.0484 64.2733 49.9931 67.2499 49.9073 67.3496L60.9217 54.2105ZM64.824 53.5501C59.8065 59.5352 54.803 65.5023 49.9012 71.3496L52.7841 73.7835L67.6928 55.9761L64.824 53.5501Z" fill="url(#paint6_linear_1_503)"/>
<path d="M31.4634 69.2169C32.2315 68.3391 32.9636 67.4214 33.7676 66.5815C34.9298 65.4002 35.9853 64.1184 36.9217 62.7511C37.6634 61.6373 38.3145 60.4658 38.8689 59.2479C39.9462 56.8539 40.6444 54.1845 40.3092 51.5491C40.0625 49.6507 39.2491 47.8708 37.9751 46.4419C37.768 46.175 37.6658 45.8414 37.6879 45.5042C38.0051 41.598 38.3541 37.6958 38.6953 33.7915C38.8948 31.597 38.4679 30.5357 36.7781 29.0155C36.9676 28.8439 38.6274 21.2349 39.8025 16.405C40.7441 12.5446 41.2808 9.02344 37.6479 7.58105C35.6529 6.78304 33.8374 7.2 32.2155 8.56259C28.0539 12.0559 21.9572 29.4643 21.6779 32.5646C21.221 37.6479 20.7082 42.7392 20.3751 47.8244C20.2394 49.9172 19.4993 51.4713 17.5821 52.5406C17.2409 52.1416 16.8579 51.6649 16.4629 51.208C15.8185 50.4659 15.2659 50.41 14.5058 51.0484C12.9936 52.3092 11.4866 53.5727 9.98504 54.8389C9.18704 55.5072 9.15116 56.0519 9.81749 56.8479C15.2054 63.2878 20.5959 69.7264 25.9891 76.1636C26.6534 76.9616 27.1981 77.0035 27.9841 76.3432C29.495 75.0823 31.0012 73.8148 32.5028 72.5406C33.2589 71.9003 33.3008 71.3437 32.6823 70.5856C32.3112 70.1407 31.9043 69.7137 31.4634 69.2169ZM19.0783 54.2105C19.3018 54.0808 19.5392 53.9671 19.7507 53.8115C21.5961 52.4948 22.4319 50.6992 22.5955 48.4249C22.9726 43.192 23.4773 37.9691 23.9461 32.7441C24.1676 30.2663 29.1133 14.1367 33.7477 10.2504C35.1063 9.11123 36.4869 9.19901 37.5382 10.4638C38.2943 11.3816 38.0549 12.9915 37.638 14.6993C36.3372 20.0219 35.2259 24.1456 34.4818 28.0858C34.4279 28.3671 33.9192 28.2514 33.6339 28.2853C31.5072 28.6005 29.8953 30.2165 29.6998 32.3591C29.221 37.608 28.7701 42.8588 28.3172 48.1197C28.2474 48.9376 28.6764 49.4923 29.3667 49.5322C30.0569 49.5721 30.4998 49.1152 30.5776 48.3232C30.6774 47.3077 30.7572 46.2903 30.8469 45.2728C31.2114 41.1086 31.5745 36.9456 31.9362 32.784C32.026 31.7307 32.5347 30.9885 33.5322 30.6374C35.1143 30.0928 36.6304 31.3776 36.4808 33.1332C36.1197 37.3905 35.7527 41.6479 35.3557 45.9012C35.3068 46.2255 35.3379 46.5568 35.4464 46.8663C35.5549 47.1758 35.7374 47.454 35.9781 47.6768C38.017 49.7217 38.6115 52.411 37.9272 55.1781C37.5142 56.8459 36.7621 58.4279 35.9482 59.9342C35.168 61.3798 34.2414 62.7416 33.1831 63.998C32.9517 64.2733 30.007 67.2499 30.0928 67.3496L19.0783 54.2105ZM15.1761 53.5501C20.1935 59.5352 25.1971 65.5023 30.0988 71.3496L27.216 73.7835L12.3073 55.9761L15.1761 53.5501Z" fill="url(#paint7_linear_1_503)"/>
<defs>
<linearGradient id="paint0_linear_1_503" x1="12.4678" y1="19.3889" x2="12.4678" y2="22.186" gradientUnits="userSpaceOnUse">
<stop stop-color="#DA3976"/>
<stop offset="1" stop-color="#F19400"/>
</linearGradient>
<linearGradient id="paint1_linear_1_503" x1="67.5318" y1="19.391" x2="67.5318" y2="22.1858" gradientUnits="userSpaceOnUse">
<stop stop-color="#DA3976"/>
<stop offset="1" stop-color="#F19400"/>
</linearGradient>
<linearGradient id="paint2_linear_1_503" x1="15.6935" y1="7.55389" x2="15.6935" y2="12.0816" gradientUnits="userSpaceOnUse">
<stop stop-color="#DA3976"/>
<stop offset="1" stop-color="#F19400"/>
</linearGradient>
<linearGradient id="paint3_linear_1_503" x1="64.2895" y1="7.54022" x2="64.2895" y2="12.0898" gradientUnits="userSpaceOnUse">
<stop stop-color="#DA3976"/>
<stop offset="1" stop-color="#F19400"/>
</linearGradient>
<linearGradient id="paint4_linear_1_503" x1="12.5556" y1="30.89" x2="12.5556" y2="34.0525" gradientUnits="userSpaceOnUse">
<stop stop-color="#DA3976"/>
<stop offset="1" stop-color="#F19400"/>
</linearGradient>
<linearGradient id="paint5_linear_1_503" x1="67.4468" y1="30.8889" x2="67.4468" y2="34.0476" gradientUnits="userSpaceOnUse">
<stop stop-color="#DA3976"/>
<stop offset="1" stop-color="#F19400"/>
</linearGradient>
<linearGradient id="paint6_linear_1_503" x1="55.0767" y1="7.17784" x2="55.0767" y2="76.8034" gradientUnits="userSpaceOnUse">
<stop stop-color="#DA3976"/>
<stop offset="1" stop-color="#F19400"/>
</linearGradient>
<linearGradient id="paint7_linear_1_503" x1="24.9234" y1="7.17784" x2="24.9234" y2="76.8034" gradientUnits="userSpaceOnUse">
<stop stop-color="#DA3976"/>
<stop offset="1" stop-color="#F19400"/>
</linearGradient>
</defs>
</svg>
