<svg width="80" height="80" viewBox="0 0 80 80" fill="none" xmlns="http://www.w3.org/2000/svg">
<g clip-path="url(#clip0_1_531)">
<path d="M61.7108 54.997C60.1426 53.7513 59.9024 52.2582 61.0101 50.6114C61.5614 49.8378 61.9081 48.9368 62.0177 47.9926C62.1274 47.0485 61.9966 46.0918 61.6374 45.212C60.5281 42.329 59.9683 39.2632 59.9869 36.1736C60.0091 33.8159 58.1963 31.9975 55.983 32.0287C53.7698 32.0599 52.0525 33.8426 52.0725 36.1691C52.0909 39.2577 51.5295 42.3223 50.4176 45.2031C50.0572 46.0822 49.9255 47.0385 50.0348 47.9825C50.1442 48.9265 50.491 49.8272 51.0427 50.6003C52.1549 52.2426 51.9324 53.7557 50.3509 54.9903C48.736 56.2582 48.0263 57.9006 48.0419 59.9195C48.0575 62.2571 48.0419 64.5992 48.0419 66.9279C48.0419 69.4036 48.022 71.8772 48.0576 74.353C48.0576 74.9791 47.8929 75.2911 47.2746 75.4872C44.7521 76.2917 42.1718 76.7039 39.5515 76.3429C38.3729 76.1865 37.238 75.7931 36.2149 75.1864C34.7067 74.2616 34.7557 72.2761 36.2261 71.2933C36.9593 70.7904 37.7756 70.4215 38.6373 70.2036C40.3634 69.8048 42.1273 69.5775 43.8756 69.2722C44.7654 69.1139 45.2303 68.5814 45.1458 67.8192C45.0679 67.1106 44.5051 66.6582 43.6443 66.7229C42.6767 66.7942 41.7069 66.9034 40.7526 67.066C38.6083 67.4315 36.4886 67.8972 34.6779 69.2053C31.9085 71.2109 31.8106 75.1596 34.5689 77.183C35.539 77.8732 36.6336 78.3682 37.792 78.6404C41.1464 79.4337 44.4651 79.0348 47.7305 78.0031C48.2021 77.8538 48.5002 77.8337 48.8316 78.3173C49.648 79.5073 50.8581 79.9953 52.2794 79.9953C54.7819 79.9953 57.2843 79.9953 59.7867 79.9953C62.2892 79.9953 63.9753 78.2883 63.9797 75.7947C63.9931 70.4555 63.9931 65.1162 63.9797 59.7769C64.0077 58.8569 63.8164 57.9434 63.4219 57.1122C63.0273 56.281 62.4408 55.5559 61.7108 54.997ZM54.8152 63.9663C56.677 63.9908 58.5411 63.9663 60.4029 63.9663H61.3527V72.0666H59.9714C58.3609 72.0666 56.7482 72.0666 55.1355 72.0666C54.0589 72.0666 53.4339 72.5368 53.405 73.339C53.3761 74.1412 54.0367 74.6538 55.1667 74.656C57.1953 74.656 59.2218 74.656 61.3661 74.656C61.3661 75.2488 61.4483 75.8036 61.346 76.3251C61.2058 77.0293 60.6787 77.3947 59.9513 77.3947C57.3376 77.3947 54.724 77.3947 52.1126 77.3947C51.1806 77.3947 50.6556 76.8688 50.6534 75.9396C50.6415 70.4072 50.6415 64.874 50.6534 59.3401C50.6461 58.9044 50.7479 58.4737 50.9496 58.0875C51.1513 57.7014 51.4463 57.372 51.8078 57.1295C52.4364 56.6918 52.9702 56.1313 53.3771 55.4816C53.7839 54.8319 54.0554 54.1066 54.1753 53.3491C54.2952 52.5916 54.261 51.8177 54.0747 51.0738C53.8884 50.3299 53.5539 49.6314 53.0913 49.0204C52.4618 48.1958 52.3906 47.2153 52.7666 46.2438C54.0219 42.9968 54.663 39.5441 54.6573 36.0621C54.6573 35.1708 55.2423 34.6048 56.0386 34.6159C56.835 34.627 57.3733 35.202 57.3733 36.1023C57.3602 39.5315 57.9887 42.9328 59.2262 46.1301C59.6577 47.2287 59.4798 48.236 58.8458 49.2142C57.0507 51.9819 57.4956 54.9368 60.0848 56.9825C61.5751 58.1613 61.4394 59.6989 61.3304 61.3903H56.4746C55.9185 61.3903 55.3624 61.3747 54.8063 61.3903C53.9855 61.4215 53.4094 61.9407 53.3893 62.6293C53.3871 63.358 53.9766 63.9552 54.8218 63.9663H54.8152Z" fill="url(#paint0_linear_1_531)"/>
<path d="M78.1871 64.0646C77.9223 64.0646 77.6577 64.0334 77.3418 64.0134V62.8568C77.3418 50.7001 77.3418 38.5456 77.3418 26.3933C77.3418 23.9532 76.2297 22.5426 73.8651 22.01C73.2534 21.8719 72.6395 21.7515 72.0033 21.6178C72.0033 20.1649 72.0189 18.8033 72.0033 17.4418C71.9811 15.8819 71.3359 14.6251 69.9524 13.8763C69.4452 13.6022 69.3251 13.3014 69.3273 12.7755C69.3473 9.16101 69.3384 5.54429 69.3273 1.9298C69.3396 1.68007 69.3329 1.42977 69.3073 1.18106C69.2028 0.488025 68.6245 -0.0445659 68.0039 0.0111444C67.6939 0.0229136 67.3985 0.146385 67.1721 0.358865C66.9457 0.571344 66.8035 0.858545 66.7715 1.16768C66.7418 1.4161 66.7344 1.66669 66.7493 1.91643C66.7493 5.55989 66.7493 9.20334 66.7315 12.8468C66.7315 13.1454 66.5691 13.5911 66.3445 13.7159C64.6962 14.6251 64.0334 16.029 64.0734 17.854C64.1001 19.0997 64.0734 20.3476 64.0734 21.629C63.3038 21.7916 62.5964 21.9209 61.9002 22.0925C59.936 22.576 58.766 24.0357 58.7393 26.0546C58.7193 27.4719 58.7282 28.8914 58.7393 30.3086C58.7393 31.3003 59.2487 31.9198 60.0317 31.9354C60.8147 31.951 61.3196 31.3159 61.3263 30.3198C61.3374 28.9003 61.3263 27.483 61.3263 26.0635C61.3263 25.2969 61.6689 24.7933 62.4274 24.6084C66.111 23.683 69.9671 23.6953 73.6449 24.644C74.0475 24.7487 74.6103 25.2345 74.6458 25.5889C74.7704 26.8123 74.6926 28.0579 74.6926 29.2635C74.6089 29.2947 74.5226 29.3179 74.4346 29.3326C73.7406 29.3326 73.0443 29.3326 72.3503 29.3504C71.3627 29.366 70.7377 29.8808 70.7465 30.663C70.7554 31.4451 71.3761 31.9421 72.3726 31.9532C73.1378 31.9532 73.9051 31.9532 74.6703 31.9532V34.5983C74.5991 34.6299 74.5244 34.6531 74.4478 34.6674C73.7538 34.6674 73.0599 34.6786 72.3637 34.6875C71.3716 34.7031 70.7488 35.2067 70.7465 35.9866C70.7443 36.7666 71.3627 37.2724 72.3592 37.2836C73.1289 37.2836 73.8985 37.2836 74.6993 37.2836V39.9175C74.6036 39.9643 74.5569 40.0089 74.5102 40.0089C73.814 40.0223 73.1199 40.029 72.4259 40.0379C71.376 40.0513 70.7287 40.566 70.7532 41.3749C70.7776 42.1838 71.3983 42.6251 72.4104 42.634C73.1756 42.634 73.9408 42.634 74.6815 42.634V45.3081C74.6094 45.3361 74.5349 45.3578 74.459 45.3727C73.7628 45.3727 73.0688 45.3727 72.3726 45.3905C71.3783 45.4039 70.751 45.9097 70.7532 46.6852C70.7554 47.4607 71.3849 47.9643 72.3792 47.9755C73.1466 47.9755 73.914 47.9755 74.6926 47.9755V50.7276C73.8651 50.7276 73.0933 50.7276 72.3214 50.7276C71.3805 50.7409 70.7643 51.2379 70.7532 51.9911C70.7421 52.7443 71.3649 53.2969 72.348 53.3103C73.1177 53.3214 73.8874 53.3103 74.6726 53.3103V56.0513C73.8785 56.0513 73.1578 56.0513 72.4371 56.0513C71.3805 56.0513 70.7354 56.5682 70.7532 57.3682C70.771 58.1682 71.3938 58.6295 72.4015 58.6384C73.1667 58.6384 73.9318 58.6384 74.6836 58.6384V64.0602C72.5416 64.0602 70.4573 64.0602 68.3798 64.0602C67.3788 64.0602 66.7493 64.5705 66.7516 65.3437C66.7538 66.117 67.3811 66.6273 68.3731 66.6407C69.1406 66.6407 69.9079 66.6407 70.6708 66.6407V77.4106C69.7811 77.4106 68.9825 77.4106 68.1773 77.4106C67.2876 77.424 66.7516 77.9209 66.7427 78.6875C66.7338 79.454 67.2831 79.9822 68.1529 79.9866C70.6842 79.9955 73.2148 79.9955 75.7447 79.9866C76.6878 79.9866 77.3018 79.4763 77.3174 78.7276C77.333 77.9788 76.7034 77.424 75.7202 77.4106C74.9506 77.4106 74.1809 77.4106 73.3957 77.4106V66.6585H78.1293C79.3371 66.6585 80.0022 66.1883 79.9888 65.3504C79.9755 64.5125 79.3482 64.0802 78.1871 64.0646ZM69.3807 21.2947H66.7115C66.7115 19.8507 66.6515 18.4423 66.7382 17.0451C66.7827 16.3409 67.3432 15.9309 68.0728 15.9443C68.8024 15.9577 69.3319 16.39 69.3697 17.0986C69.4408 18.4735 69.3807 19.8618 69.3807 21.2947Z" fill="url(#paint1_linear_1_531)"/>
<path d="M24.6462 67.5499C22.1504 66.79 19.5857 66.9192 17.0343 67.1242C15.4928 67.249 13.9603 67.4986 12.3098 67.7081C12.2831 65.854 11.9026 64.0379 13.3329 62.5248C13.5553 62.289 13.6794 61.9768 13.6794 61.6524C13.6794 61.3279 13.5553 61.0158 13.3329 60.7799C12.8391 60.2629 12.0405 60.156 11.5534 60.7465C10.935 61.5019 10.3389 62.3577 10.0364 63.2713C9.35351 65.3304 9.59152 67.4496 10.0364 69.5331C10.0588 69.687 10.1117 69.8347 10.192 69.9677C10.2724 70.1007 10.3785 70.2162 10.5042 70.3074C10.6298 70.3986 10.7725 70.4637 10.9236 70.4987C11.0748 70.5337 11.2315 70.5381 11.3844 70.5114C11.9916 70.4535 12.5923 70.3354 13.1951 70.2396C16.1624 69.7649 19.1386 69.2368 22.1438 69.6914C23.3211 69.8506 24.4551 70.2422 25.4803 70.8435C26.9596 71.7638 26.8817 73.551 25.4803 74.5805C25.0587 74.8992 24.6001 75.1656 24.1145 75.3738C19.8278 77.1682 15.1081 77.6565 10.5458 76.7777C5.95688 75.8863 2.79606 72.3209 2.62033 68.0869C2.39789 62.9794 4.05283 58.5359 7.51398 54.7699C7.90769 54.3421 8.45935 53.9967 8.69514 53.4975C8.88981 53.0104 8.88981 52.467 8.69514 51.9799C8.44378 51.405 7.78757 51.3872 7.23148 51.5967C6.95742 51.7327 6.71318 51.9221 6.513 52.1538C2.66037 55.8863 0.607219 60.4256 0.0733668 65.7738C-0.527217 71.7905 2.91395 77.3281 8.73739 78.9526C13.7467 80.3499 18.747 79.8908 23.6718 78.3175C25.2445 77.8139 26.7259 77.1031 27.8982 75.8663C28.9147 74.79 29.3329 73.5376 29.0549 72.0423C28.5744 69.5755 26.9262 68.2518 24.6462 67.5499Z" fill="url(#paint2_linear_1_531)"/>
<path d="M34.3626 55.3424L34.3048 55.2533C37.0964 54.6249 39.699 53.4973 42.0146 51.5853C42.1553 51.4961 42.3148 51.4411 42.4805 51.4249C42.6463 51.4086 42.8134 51.4315 42.9687 51.4917C44.2589 52.187 45.518 52.9424 46.7658 53.7201C47.3197 54.0588 47.9269 54.226 48.3629 53.7469C48.6632 53.4148 48.7811 52.8198 48.7744 52.3452C48.7744 52.0689 48.4097 51.7301 48.1272 51.5385C46.9216 50.7162 45.6803 49.9363 44.3946 49.0984L44.8684 48.4009C46.53 45.9719 47.5754 43.3068 47.2507 40.3452C47.1017 38.9859 47.3442 37.8494 47.7935 36.6104C49.7021 31.3513 49.4773 26.0276 47.9714 20.7262C44.2945 7.80146 33.0436 1.09394 21.2788 3.1775C13.3244 4.58809 7.48765 9.03599 4.0532 16.3496C1.27049 22.2794 1.31499 28.4455 3.34363 34.6226C3.53715 35.2087 3.52596 35.514 2.93427 35.8839C1.62633 36.7017 1.13706 37.9964 1.41511 39.4873C1.95563 42.3619 3.88858 43.9196 6.59343 44.6126C6.89808 44.6726 7.18641 44.7971 7.43919 44.9778C7.69198 45.1584 7.90337 45.3909 8.05926 45.66C10.6395 49.8226 14.0829 52.987 18.7764 54.6271C20.3444 55.1663 21.9644 55.5398 23.61 55.7413L23.5633 55.8126C23.3235 56.1836 23.2244 56.6283 23.284 57.0662C23.3436 57.5041 23.5579 57.9061 23.888 58.1992L27.5649 61.4884C27.99 61.8685 28.54 62.0786 29.1098 62.0786C29.6796 62.0786 30.2295 61.8685 30.6546 61.4884L33.9133 58.5714C34.3594 58.1747 34.6498 57.6317 34.7321 57.0399C34.8145 56.448 34.6834 55.8462 34.3626 55.3424ZM9.93663 43.8193C9.36941 42.8343 8.72442 42.2973 7.56996 42.1859C6.84327 42.1326 6.14379 41.8865 5.54336 41.473C4.94293 41.0595 4.46311 40.4933 4.15323 39.8327C3.55932 38.6382 3.95313 37.914 5.25217 37.6622C6.55121 37.4104 6.92484 36.7597 6.40879 35.5251C4.9581 32.1422 4.33212 28.462 4.58257 24.7886C5.11865 17.0895 8.86011 11.436 15.5777 7.74575C18.2814 6.22634 21.3264 5.42113 24.4263 5.40591C28.4925 5.40591 31.5911 10.3686 29.8516 14.0432C29.4061 14.9806 28.6767 15.7532 27.7672 16.251C26.8578 16.7487 25.8147 16.9462 24.7867 16.8154C22.8448 16.5792 21.3456 14.587 21.6526 12.675C21.7491 12.0652 22.0532 11.5077 22.5134 11.097C22.9736 10.6864 23.5614 10.4479 24.1771 10.4221C24.2884 10.4221 24.3996 10.4221 24.5108 10.4221C25.3272 10.3641 25.8455 9.85605 25.8344 9.10953C25.8232 8.36302 25.3206 7.88168 24.4842 7.82374C21.3701 7.6009 18.6207 10.636 19.0812 13.8182C19.4637 16.4923 20.8984 18.3664 23.4943 19.1352C26.3749 19.9909 28.8973 19.1485 30.9282 16.9959C33.3261 14.4555 33.5975 10.3329 31.6578 7.23098C31.4821 6.95243 31.3086 6.67165 31.1351 6.3931L31.2508 6.22597C31.5599 6.31956 31.8736 6.40201 32.1761 6.5112C38.0263 8.6126 41.9811 12.704 44.3634 18.3441C46.6924 23.8572 47.4465 29.5508 45.5091 35.3335C44.8996 37.1563 44.3968 38.7964 44.6548 40.8154C45.0352 43.8594 43.4871 46.3998 41.4229 48.5636C38.8581 51.2533 35.6395 52.5881 31.987 53.0561C28.5437 53.5017 25.1159 53.573 21.7103 52.7909C16.4408 51.5764 12.5925 48.4477 9.93663 43.8193ZM32.4408 56.909L29.3044 59.7146C29.253 59.7606 29.1865 59.786 29.1176 59.786C29.0487 59.786 28.9821 59.7606 28.9307 59.7146L25.7365 56.8533C25.7033 56.8237 25.6817 56.7832 25.6756 56.7391C25.6695 56.695 25.6792 56.6501 25.7032 56.6126L26.1013 55.9931C26.1135 55.9731 26.1302 55.9563 26.1502 55.9441H26.4394C28.2252 56.4445 30.1181 56.4104 31.8847 55.846C31.9234 55.834 31.9649 55.8349 32.003 55.8486C32.0411 55.8622 32.0737 55.8879 32.096 55.9218L32.4897 56.5368C32.5298 56.5936 32.5471 56.6635 32.538 56.7325C32.529 56.8015 32.4943 56.8645 32.4408 56.909Z" fill="url(#paint3_linear_1_531)"/>
<path d="M51.8081 15.8507H54.5886V18.6362C54.5886 18.9908 54.7292 19.3309 54.9795 19.5817C55.2298 19.8324 55.5693 19.9733 55.9233 19.9733C56.2772 19.9733 56.6167 19.8324 56.867 19.5817C57.1173 19.3309 57.2579 18.9908 57.2579 18.6362V15.8507H60.0384C60.3923 15.8507 60.7318 15.7098 60.9821 15.4591C61.2324 15.2083 61.373 14.8683 61.373 14.5137C61.373 14.159 61.2324 13.819 60.9821 13.5682C60.7318 13.3175 60.3923 13.1766 60.0384 13.1766H57.2579V10.3911C57.2579 10.0365 57.1173 9.6964 56.867 9.44566C56.6167 9.19491 56.2772 9.05405 55.9233 9.05405C55.5693 9.05405 55.2298 9.19491 54.9795 9.44566C54.7292 9.6964 54.5886 10.0365 54.5886 10.3911V13.1766H51.8081C51.4542 13.1766 51.1147 13.3175 50.8644 13.5682C50.6141 13.819 50.4735 14.159 50.4735 14.5137C50.4735 14.8683 50.6141 15.2083 50.8644 15.4591C51.1147 15.7098 51.4542 15.8507 51.8081 15.8507Z" fill="url(#paint4_linear_1_531)"/>
</g>
<defs>
<linearGradient id="paint0_linear_1_531" x1="48.2698" y1="32.0283" x2="48.2698" y2="79.9953" gradientUnits="userSpaceOnUse">
<stop stop-color="#DA3976"/>
<stop offset="1" stop-color="#F19400"/>
</linearGradient>
<linearGradient id="paint1_linear_1_531" x1="69.3582" y1="0.00714111" x2="69.3582" y2="79.9933" gradientUnits="userSpaceOnUse">
<stop stop-color="#DA3976"/>
<stop offset="1" stop-color="#F19400"/>
</linearGradient>
<linearGradient id="paint2_linear_1_531" x1="14.5723" y1="51.4742" x2="14.5723" y2="79.7862" gradientUnits="userSpaceOnUse">
<stop stop-color="#DA3976"/>
<stop offset="1" stop-color="#F19400"/>
</linearGradient>
<linearGradient id="paint3_linear_1_531" x1="25.2514" y1="2.80273" x2="25.2514" y2="62.0786" gradientUnits="userSpaceOnUse">
<stop stop-color="#DA3976"/>
<stop offset="1" stop-color="#F19400"/>
</linearGradient>
<linearGradient id="paint4_linear_1_531" x1="55.9233" y1="9.05405" x2="55.9233" y2="19.9733" gradientUnits="userSpaceOnUse">
<stop stop-color="#DA3976"/>
<stop offset="1" stop-color="#F19400"/>
</linearGradient>
<clipPath id="clip0_1_531">
<rect width="80" height="80" fill="white"/>
</clipPath>
</defs>
</svg>
